<svg xmlns="http://www.w3.org/2000/svg" viewBox="0 0 1024 1024">
  <defs>
    <clipPath id="keyclip"><circle cx="350.33" cy="111.52" r="17.2"/></clipPath>
    <filter id="shadow" x="-20%" y="-20%" width="140%" height="140%">
      <feDropShadow dx="0" dy="12" stdDeviation="18" flood-color="#000000" flood-opacity="0.45"/>
    </filter>
  </defs>
  <!-- Apple 1024-grid: squircle 824x824, rx 186. Baked shadow + hairline edge so
       the matte black reads as a defined tile on dark docks instead of dissolving. -->
  <rect x="100" y="100" width="824" height="824" rx="186" fill="#1b1b1d" filter="url(#shadow)"/>
  <rect x="101" y="101" width="822" height="822" rx="185" fill="none"
        stroke="#ffffff" stroke-opacity="0.14" stroke-width="2"/>
  <style>path{fill:#ffffff !important} path[style*="none"]{fill:none !important}</style>
  <g transform="translate(512,512) scale(20.349) translate(-350.33,-111.52)" clip-path="url(#keyclip)">
  <g clip-path="url(#e9cb022b8ad094c6__clip0_4597_21505)" style="fill: none;"><path d="M91.637 134.621a3.217 3.217 0 0 1 3.216-3.206 3.219 3.219 0 0 1-3.216-3.217 3.21 3.21 0 0 1-3.206 3.217 3.208 3.208 0 0 1 3.206 3.206ZM48.624 91.608a3.208 3.208 0 0 1 3.207 3.206 3.217 3.217 0 0 1 3.216-3.206h-6.432.01ZM51.84 174.418a3.217 3.217 0 0 1 3.217-3.207 3.218 3.218 0 0 1-3.217-3.216 3.216 3.216 0 0 1-3.206 3.216 3.208 3.208 0 0 1 3.206 3.207ZM94.853 51.82a3.219 3.219 0 0 1-3.216-3.215v6.432a3.217 3.217 0 0 1 3.216-3.206v-.01ZM131.434 55.027a3.217 3.217 0 0 1 3.216-3.206h-6.432a3.208 3.208 0 0 1 3.206 3.206h.01ZM91.637 94.824a3.219 3.219 0 0 1 3.197-3.206 3.215 3.215 0 0 1-3.197-3.216 3.217 3.217 0 0 1-3.206 3.216 3.208 3.208 0 0 1 3.206 3.206ZM51.84 207.792a3.217 3.217 0 0 1-3.206 3.216 3.208 3.208 0 0 1 3.206 3.207 3.208 3.208 0 0 1 3.207-3.207 3.217 3.217 0 0 1-3.206-3.216ZM247.647 211.008a3.21 3.21 0 0 1 3.178 3.207 3.217 3.217 0 0 1 3.186-3.207h-6.364ZM191.134 207.792a3.219 3.219 0 0 1-3.187 3.216h6.374a3.221 3.221 0 0 1-3.197-3.216h.01ZM207.851 211.008a3.211 3.211 0 0 1 3.187 3.207 3.213 3.213 0 0 1 3.196-3.207h-6.383ZM91.637 207.792c0 1.769-1.437 3.216-3.196 3.216a3.207 3.207 0 0 1 3.196 3.207 3.208 3.208 0 0 1 3.207-3.207 3.217 3.217 0 0 1-3.207-3.216ZM131.434 174.418a3.217 3.217 0 0 1 3.216-3.207 3.218 3.218 0 0 1-3.216-3.216 3.21 3.21 0 0 1-3.206 3.216 3.208 3.208 0 0 1 3.206 3.207ZM131.434 207.792a3.221 3.221 0 0 1-3.197 3.216 3.206 3.206 0 0 1 3.197 3.207 3.215 3.215 0 0 1 3.207-3.207 3.217 3.217 0 0 1-3.207-3.216ZM168.054 211.008c1.759.02 3.187 1.447 3.187 3.207a3.21 3.21 0 0 1 3.187-3.207h-6.374ZM131.434 94.824a3.219 3.219 0 0 1 3.197-3.206 3.215 3.215 0 0 1-3.197-3.216 3.212 3.212 0 0 1-3.187 3.216 3.21 3.21 0 0 1 3.187 3.206ZM367.018 171.211h6.413a3.225 3.225 0 0 1-3.216-3.216 3.216 3.216 0 0 1-3.206 3.216h.009ZM370.225 134.621c0-1.74 1.408-3.158 3.148-3.206-1.74-.04-3.148-1.467-3.148-3.207a3.218 3.218 0 0 1-3.119 3.216 3.208 3.208 0 0 1 3.119 3.197ZM290.631 134.621a3.217 3.217 0 0 1 3.216-3.206h33.365a3.208 3.208 0 0 1 3.206 3.206c0-1.74 1.398-3.148 3.128-3.197a3.218 3.218 0 0 1-3.128-3.206v-.02a3.21 3.21 0 0 1-3.206 3.217h-33.365a3.219 3.219 0 0 1-3.216-3.217 3.21 3.21 0 0 1-3.206 3.217 3.208 3.208 0 0 1 3.206 3.206ZM350.321 207.792a3.212 3.212 0 0 1-3.186 3.216h6.383a3.222 3.222 0 0 1-3.197-3.216ZM651.843 51.791a3.219 3.219 0 0 1-3.216-3.216v6.433a3.216 3.216 0 0 1 3.216-3.207v-.01ZM353.538 171.211h-6.413c1.76 0 3.197 1.447 3.197 3.207a3.21 3.21 0 0 1 3.216-3.207ZM327.222 171.211h6.412a3.216 3.216 0 0 1-3.206-3.216 3.216 3.216 0 0 1-3.206 3.216Z" class="f" style="fill: rgb(178, 178, 178);"></path><path d="M290.631 207.792v-33.374a3.217 3.217 0 0 1 3.216-3.207 3.225 3.225 0 0 1-3.216-3.216 3.216 3.216 0 0 1-3.206 3.216h-33.374a3.218 3.218 0 0 1-3.217-3.216 3.21 3.21 0 0 1-3.206 3.216h-33.374a3.218 3.218 0 0 1-3.216-3.216 3.211 3.211 0 0 1-3.207 3.216h-19.903a3.208 3.208 0 0 1 3.206 3.207 3.217 3.217 0 0 1 3.216-3.207h33.365a3.208 3.208 0 0 1 3.206 3.207v33.364a3.211 3.211 0 0 1-3.187 3.216h6.374a3.225 3.225 0 0 1-3.187-3.216v-33.374a3.217 3.217 0 0 1 3.216-3.206h53.268a3.208 3.208 0 0 1 3.207 3.206v33.374a3.214 3.214 0 0 1-3.197 3.216c1.76 0 3.197 1.447 3.197 3.207a3.208 3.208 0 0 1 3.206-3.207 3.216 3.216 0 0 1-3.206-3.216l.019.01ZM171.231 167.985a3.21 3.21 0 0 1-3.206 3.217h6.432a3.219 3.219 0 0 1-3.216-3.217h-.01ZM250.834 134.621a3.217 3.217 0 0 1 3.217-3.206 3.22 3.22 0 0 1-3.217-3.217 3.21 3.21 0 0 1-3.206 3.217 3.208 3.208 0 0 1 3.206 3.206ZM131.434 134.621a3.217 3.217 0 0 1 3.216-3.206 3.219 3.219 0 0 1-3.216-3.217 3.21 3.21 0 0 1-3.206 3.217 3.208 3.208 0 0 1 3.206 3.206ZM91.637 167.985a3.21 3.21 0 0 1-3.206 3.217 3.208 3.208 0 0 1 3.206 3.206 3.217 3.217 0 0 1 3.216-3.206 3.219 3.219 0 0 1-3.216-3.217ZM171.231 134.621a3.217 3.217 0 0 1 3.216-3.206 3.219 3.219 0 0 1-3.216-3.217 3.21 3.21 0 0 1-3.206 3.217 3.208 3.208 0 0 1 3.206 3.206ZM211.028 134.621a3.217 3.217 0 0 1 3.216-3.206 3.219 3.219 0 0 1-3.216-3.217 3.21 3.21 0 0 1-3.207 3.217 3.208 3.208 0 0 1 3.207 3.206ZM492.832 171.211a3.225 3.225 0 0 1-3.217-3.216 3.216 3.216 0 0 1-3.206 3.216h6.423ZM532.628 171.211a3.225 3.225 0 0 1-3.216-3.216 3.216 3.216 0 0 1-3.206 3.216H532.628ZM406.815 171.211a3.209 3.209 0 0 1 3.207 3.207 3.216 3.216 0 0 1 3.216-3.207 3.224 3.224 0 0 1-3.216-3.216 3.21 3.21 0 0 1-3.207 3.216ZM453.035 171.211a3.224 3.224 0 0 1-3.216-3.216 3.217 3.217 0 0 1-3.207 3.216h6.423ZM645.625 211.008a3.21 3.21 0 0 1 3.187 3.207 3.213 3.213 0 0 1 3.197-3.207H645.625ZM652.019 171.211a3.224 3.224 0 0 1-3.216-3.216 3.216 3.216 0 0 1-3.207 3.216h6.423ZM612.222 171.211a3.217 3.217 0 0 1-3.207-3.216 3.216 3.216 0 0 1-3.206 3.216h6.413ZM569.209 174.418a3.217 3.217 0 0 1 3.216-3.207 3.225 3.225 0 0 1-3.216-3.216 3.21 3.21 0 0 1-3.207 3.216 3.209 3.209 0 0 1 3.207 3.207ZM609.015 94.795a3.217 3.217 0 0 1 3.217-3.207h-6.433a3.208 3.208 0 0 1 3.207 3.207h.009ZM648.627 88.372a3.217 3.217 0 0 1-3.207 3.216h.186a3.208 3.208 0 0 1 3.206 3.207 3.217 3.217 0 0 1 3.217-3.207h-.186a3.219 3.219 0 0 1-3.216-3.216ZM327.231 211.008a3.21 3.21 0 0 1 3.187 3.207 3.22 3.22 0 0 1 3.197-3.207h-6.384ZM489.478 88.372a3.21 3.21 0 0 1-3.206 3.216h-39.66a3.209 3.209 0 0 1 3.207 3.207c0-1.76 1.446-3.197 3.216-3.197h33.374a3.208 3.208 0 0 1 3.206 3.207 3.227 3.227 0 0 1 3.217-3.226h-.137a3.219 3.219 0 0 1-3.217-3.217v.01ZM529.422 94.795a3.217 3.217 0 0 1 3.216-3.207h-6.432a3.208 3.208 0 0 1 3.206 3.207h.01ZM409.904 88.372v.04a3.21 3.21 0 0 1-3.206 3.215h.127a3.208 3.208 0 0 1 3.206 3.207v-.04a3.217 3.217 0 0 1 3.217-3.206h-.118a3.219 3.219 0 0 1-3.216-3.216h-.01ZM569.053 88.43c-.04 1.74-1.457 3.158-3.207 3.158h.157a3.208 3.208 0 0 1 3.206 3.207 3.217 3.217 0 0 1 3.216-3.207h-.166a3.226 3.226 0 0 1-3.216-3.157h.01ZM446.641 211.008a3.21 3.21 0 0 1 3.187 3.207 3.213 3.213 0 0 1 3.197-3.207H446.641ZM469.712 174.418a3.21 3.21 0 0 1 3.216-3.207h-6.413a3.209 3.209 0 0 1 3.207 3.207h-.01ZM469.712 207.792a3.213 3.213 0 0 1-3.187 3.216h6.374a3.221 3.221 0 0 1-3.197-3.216h.01ZM410.022 207.792a3.221 3.221 0 0 1-3.197 3.216 3.207 3.207 0 0 1 3.197 3.207 3.215 3.215 0 0 1 3.206-3.207 3.217 3.217 0 0 1-3.206-3.216ZM628.899 207.792a3.213 3.213 0 0 1-3.187 3.216h6.374a3.221 3.221 0 0 1-3.196-3.216h.009ZM486.438 211.008a3.21 3.21 0 0 1 3.187 3.207 3.213 3.213 0 0 1 3.197-3.207H486.438ZM367.038 211.008a3.21 3.21 0 0 1 3.187 3.207 3.213 3.213 0 0 1 3.196-3.207h-6.383ZM509.509 174.418a3.21 3.21 0 0 1 3.216-3.207h-6.413a3.209 3.209 0 0 1 3.207 3.207h-.01ZM628.899 174.418a3.21 3.21 0 0 1 3.216-3.207h-6.412a3.208 3.208 0 0 1 3.206 3.207h-.01ZM569.209 207.792a3.215 3.215 0 0 1-3.197 3.216 3.206 3.206 0 0 1 3.197 3.207c0-1.76 1.437-3.197 3.206-3.207a3.217 3.217 0 0 1-3.206-3.216ZM605.829 211.008a3.21 3.21 0 0 1 3.186 3.207 3.213 3.213 0 0 1 3.197-3.207h-6.383ZM526.235 211.008a3.21 3.21 0 0 1 3.187 3.207 3.213 3.213 0 0 1 3.197-3.207h-6.384ZM509.509 207.792a3.213 3.213 0 0 1-3.187 3.216h6.374a3.221 3.221 0 0 1-3.197-3.216h.01ZM171.221 88.49a3.225 3.225 0 0 1-3.177 3.128 3.21 3.21 0 0 1 3.187 3.206 3.217 3.217 0 0 1 3.216-3.206h-.029a3.195 3.195 0 0 1-3.197-3.119v-.01ZM171.211 54.851v-6.246a3.21 3.21 0 0 1-3.206 3.216h.019c1.711 0 3.099 1.349 3.197 3.03h-.01ZM211.028 94.824a3.217 3.217 0 0 1 3.216-3.206h-6.432a3.208 3.208 0 0 1 3.206 3.206h.01Z" class="f" style="fill: rgb(178, 178, 178);"></path><path d="M685.481 11.77H15.015a3.208 3.208 0 0 0-3.206 3.206v232.877a3.194 3.194 0 0 0 3.197 3.206H685.47a3.208 3.208 0 0 0 3.207-3.206V14.976a3.195 3.195 0 0 0-3.197-3.206Zm3.128 116.399a3.21 3.21 0 0 1-3.206 3.216h-33.374a3.219 3.219 0 0 1-3.217-3.216 3.21 3.21 0 0 1-3.206 3.216h-33.374a3.219 3.219 0 0 1-3.216-3.216 3.21 3.21 0 0 1-3.207 3.216h-33.364a3.219 3.219 0 0 1-3.216-3.216 3.21 3.21 0 0 1-3.207 3.216h-33.364a3.219 3.219 0 0 1-3.217-3.216 3.21 3.21 0 0 1-3.206 3.216h-33.364a3.219 3.219 0 0 1-3.217-3.216c0 1.789-1.437 3.236-3.206 3.236h-33.374a3.219 3.219 0 0 1-3.216-3.216 3.215 3.215 0 0 1-3.207 3.206h-33.374a3.219 3.219 0 0 1-3.216-3.216v.039a3.207 3.207 0 0 1-3.138 3.206 3.214 3.214 0 0 1 3.138 3.207 3.217 3.217 0 0 1 3.216-3.207h33.374a3.209 3.209 0 0 1 3.207 3.207 3.216 3.216 0 0 1 3.216-3.207h33.374a3.208 3.208 0 0 1 3.206 3.207 3.217 3.217 0 0 1 3.217-3.207h33.364a3.208 3.208 0 0 1 3.206 3.207 3.217 3.217 0 0 1 3.217-3.207h33.364a3.209 3.209 0 0 1 3.207 3.207 3.216 3.216 0 0 1 3.216-3.207h33.364a3.209 3.209 0 0 1 3.207 3.207 3.216 3.216 0 0 1 3.216-3.207h33.374a3.208 3.208 0 0 1 3.206 3.207 3.217 3.217 0 0 1 3.217-3.207h33.374a3.208 3.208 0 0 1 3.206 3.207v33.374a3.21 3.21 0 0 1-3.206 3.216 3.208 3.208 0 0 1 3.206 3.207v33.374a3.213 3.213 0 0 1-3.187 3.216 3.208 3.208 0 0 1 3.207 3.206v33.375a3.21 3.21 0 0 1-3.207 3.216h-33.374a3.219 3.219 0 0 1-3.216-3.216 3.21 3.21 0 0 1-3.207 3.216h-33.374a3.219 3.219 0 0 1-3.216-3.216 3.21 3.21 0 0 1-3.206 3.216h-33.365a3.219 3.219 0 0 1-3.216-3.216 3.21 3.21 0 0 1-3.206 3.216h-33.365a3.219 3.219 0 0 1-3.216-3.216 3.21 3.21 0 0 1-3.206 3.216H492.89a3.219 3.219 0 0 1-3.216-3.216 3.21 3.21 0 0 1-3.206 3.216h-33.375a3.219 3.219 0 0 1-3.216-3.216 3.21 3.21 0 0 1-3.206 3.216h-33.374a3.219 3.219 0 0 1-3.217-3.216 3.21 3.21 0 0 1-3.206 3.216H373.5a3.22 3.22 0 0 1-3.217-3.216 3.21 3.21 0 0 1-3.206 3.216h-33.364a3.219 3.219 0 0 1-3.217-3.216 3.21 3.21 0 0 1-3.206 3.216h-33.364a3.219 3.219 0 0 1-3.217-3.216 3.217 3.217 0 0 1-3.206 3.216h-33.374a3.219 3.219 0 0 1-3.216-3.216 3.21 3.21 0 0 1-3.207 3.216h-33.374a3.219 3.219 0 0 1-3.216-3.216 3.21 3.21 0 0 1-3.207 3.216h-33.364a3.219 3.219 0 0 1-3.216-3.216 3.21 3.21 0 0 1-3.207 3.216h-33.374a3.219 3.219 0 0 1-3.216-3.216 3.21 3.21 0 0 1-3.207 3.216H94.951a3.219 3.219 0 0 1-3.216-3.216 3.21 3.21 0 0 1-3.206 3.216H55.164a3.219 3.219 0 0 1-3.216-3.216 3.217 3.217 0 0 1-3.206 3.216H15.25a3.208 3.208 0 0 1-3.206-3.207v-33.384a3.208 3.208 0 0 1 3.206-3.206 3.217 3.217 0 0 1-3.206-3.216v-33.365a3.217 3.217 0 0 1 3.216-3.206 3.225 3.225 0 0 1-3.216-3.216V134.65a3.217 3.217 0 0 1 3.216-3.206h33.374a3.208 3.208 0 0 1 3.206 3.206 3.217 3.217 0 0 1 3.217-3.206 3.219 3.219 0 0 1-3.217-3.216 3.21 3.21 0 0 1-3.206 3.216H15.26a3.219 3.219 0 0 1-3.216-3.216V94.863a3.217 3.217 0 0 1 3.216-3.206h.02a3.219 3.219 0 0 1-3.217-3.216V15.22a3.217 3.217 0 0 1 3.216-3.207h73.152a3.208 3.208 0 0 1 3.206 3.207 3.217 3.217 0 0 1 3.216-3.207h73.152a3.208 3.208 0 0 1 3.206 3.207v.137a3.208 3.208 0 0 1 3.207-3.207h152.686a3.208 3.208 0 0 1 3.207 3.207v-.128a3.216 3.216 0 0 1 3.216-3.206h73.151a3.208 3.208 0 0 1 3.207 3.207v-.04a3.217 3.217 0 0 1 3.216-3.206h73.151a3.208 3.208 0 0 1 3.207 3.206 3.217 3.217 0 0 1 3.216-3.206h73.152a3.216 3.216 0 0 1 3.206 3.148 3.218 3.218 0 0 1 3.216-3.148h73.152a3.208 3.208 0 0 1 3.206 3.206 3.217 3.217 0 0 1 3.216-3.206h33.375a3.208 3.208 0 0 1 3.206 3.206v33.375a3.21 3.21 0 0 1-3.206 3.216 3.208 3.208 0 0 1 3.206 3.206v33.374a3.21 3.21 0 0 1-3.206 3.217h.185a3.208 3.208 0 0 1 3.207 3.206v33.374l.019.01Z" class="f" style="fill: rgb(178, 178, 178);"></path><path d="M330.32 88.411a3.208 3.208 0 0 1-3.206 3.207h.108a3.208 3.208 0 0 1 3.206 3.206v.02a3.217 3.217 0 0 1 3.216-3.207h33.365a3.208 3.208 0 0 1 3.206 3.207 3.225 3.225 0 0 1 3.216-3.216h-39.904a3.219 3.219 0 0 1-3.216-3.217h.009ZM250.834 94.824a3.217 3.217 0 0 1 3.217-3.206h-6.433a3.208 3.208 0 0 1 3.207 3.206h.009ZM290.631 94.824a3.217 3.217 0 0 1 3.216-3.206h-6.432a3.208 3.208 0 0 1 3.206 3.206h.01Z" class="f" style="fill: rgb(178, 178, 178);"></path><path d="M15.26 131.415a3.22 3.22 0 0 1-3.216-3.217V94.834a3.217 3.217 0 0 1 3.216-3.206h33.374a3.208 3.208 0 0 1 3.206 3.206v33.364a3.21 3.21 0 0 1-3.206 3.217H15.26Z" stroke-linejoin="round" class="s" style="fill: none; stroke: rgb(178, 178, 178); stroke-width: 0.5; stroke-linecap: round; stroke-linejoin: round; stroke-miterlimit: 30;"></path><path d="M55.057 131.415a3.219 3.219 0 0 1-3.217-3.217V94.834a3.217 3.217 0 0 1 3.217-3.206H88.42a3.208 3.208 0 0 1 3.206 3.206v33.364a3.21 3.21 0 0 1-3.206 3.217H55.057ZM134.65 211.008a3.219 3.219 0 0 1-3.216-3.216v-33.374a3.217 3.217 0 0 1 3.216-3.207h53.268a3.208 3.208 0 0 1 3.206 3.207v33.374a3.21 3.21 0 0 1-3.206 3.216H134.65ZM234.147 211.008a3.219 3.219 0 0 1-3.216-3.216v-33.374a3.217 3.217 0 0 1 3.216-3.207h53.268a3.208 3.208 0 0 1 3.206 3.207v33.374a3.21 3.21 0 0 1-3.206 3.216h-53.268ZM293.847 211.008a3.219 3.219 0 0 1-3.216-3.216v-33.374a3.217 3.217 0 0 1 3.216-3.207h53.268a3.208 3.208 0 0 1 3.206 3.207v33.374a3.21 3.21 0 0 1-3.206 3.216h-53.268Z" stroke-linejoin="round" class="s" style="fill: none; stroke: rgb(178, 178, 178); stroke-width: 0.5; stroke-linecap: round; stroke-linejoin: round; stroke-miterlimit: 30;"></path><path d="M353.538 211.008a3.219 3.219 0 0 1-3.216-3.216v-33.374a3.216 3.216 0 0 1 3.216-3.207h53.267a3.209 3.209 0 0 1 3.207 3.207v33.374a3.21 3.21 0 0 1-3.207 3.216h-53.267ZM413.238 211.008a3.219 3.219 0 0 1-3.216-3.216v-33.374a3.217 3.217 0 0 1 3.216-3.207h53.268a3.208 3.208 0 0 1 3.206 3.207v33.374a3.21 3.21 0 0 1-3.206 3.216h-53.268ZM512.735 211.008a3.219 3.219 0 0 1-3.216-3.216v-33.374a3.216 3.216 0 0 1 3.216-3.207h53.268a3.208 3.208 0 0 1 3.206 3.207v33.374a3.21 3.21 0 0 1-3.206 3.216h-53.268Z" stroke-linejoin="round" class="s" style="fill: none; stroke: rgb(178, 178, 178); stroke-width: 0.5; stroke-linecap: round; stroke-linejoin: round; stroke-miterlimit: 30;"></path><path d="M572.425 211.008a3.219 3.219 0 0 1-3.216-3.216v-33.374a3.217 3.217 0 0 1 3.216-3.207h53.268a3.208 3.208 0 0 1 3.206 3.207v33.374a3.21 3.21 0 0 1-3.206 3.216h-53.268ZM632.125 211.008a3.219 3.219 0 0 1-3.216-3.216v-33.374a3.217 3.217 0 0 1 3.216-3.207h53.268a3.21 3.21 0 0 1 3.207 3.207v33.374a3.211 3.211 0 0 1-3.207 3.216h-53.268ZM94.853 131.415a3.219 3.219 0 0 1-3.216-3.217V94.834a3.217 3.217 0 0 1 3.216-3.206h33.375a3.208 3.208 0 0 1 3.206 3.206v33.364a3.21 3.21 0 0 1-3.206 3.217H94.853Z" stroke-linejoin="round" class="s" style="fill: none; stroke: rgb(178, 178, 178); stroke-width: 0.5; stroke-linecap: round; stroke-linejoin: round; stroke-miterlimit: 30;"></path><path d="M134.65 131.415a3.219 3.219 0 0 1-3.216-3.217V94.834a3.217 3.217 0 0 1 3.216-3.206h33.374a3.208 3.208 0 0 1 3.207 3.206v33.364a3.21 3.21 0 0 1-3.207 3.217H134.65ZM94.853 91.618a3.219 3.219 0 0 1-3.216-3.216V55.026a3.217 3.217 0 0 1 3.216-3.206h33.375a3.208 3.208 0 0 1 3.206 3.206v33.374a3.21 3.21 0 0 1-3.206 3.217H94.853Z" stroke-linejoin="round" class="s" style="fill: none; stroke: rgb(178, 178, 178); stroke-width: 0.5; stroke-linecap: round; stroke-linejoin: round; stroke-miterlimit: 30;"></path><path d="M134.65 91.618a3.219 3.219 0 0 1-3.216-3.216V55.026a3.217 3.217 0 0 1 3.216-3.206h33.374a3.208 3.208 0 0 1 3.207 3.206v33.374a3.21 3.21 0 0 1-3.207 3.217H134.65ZM168.005 12.014H94.844a3.206 3.206 0 0 0-3.207 3.207v33.384a3.206 3.206 0 0 0 3.207 3.206h73.161a3.206 3.206 0 0 0 3.206-3.206V15.22a3.206 3.206 0 0 0-3.206-3.207Z" stroke-linejoin="round" class="s" style="fill: none; stroke: rgb(178, 178, 178); stroke-width: 0.5; stroke-linecap: round; stroke-linejoin: round; stroke-miterlimit: 30;"></path><path d="M327.114 12.16H174.418a3.207 3.207 0 0 0-3.207 3.207v73.034a3.207 3.207 0 0 0 3.207 3.207h152.696a3.207 3.207 0 0 0 3.207-3.207V15.367a3.207 3.207 0 0 0-3.207-3.206ZM572.269 91.588a3.22 3.22 0 0 1-3.217-3.216v-73.17a3.217 3.217 0 0 1 3.217-3.207h73.151a3.208 3.208 0 0 1 3.207 3.206v73.171a3.21 3.21 0 0 1-3.207 3.216h-73.151Z" stroke-linejoin="round" class="s" style="fill: none; stroke: rgb(178, 178, 178); stroke-width: 0.5; stroke-linecap: round; stroke-linejoin: round; stroke-miterlimit: 30;"></path><path d="M492.695 91.588a3.219 3.219 0 0 1-3.216-3.216v-73.17a3.216 3.216 0 0 1 3.216-3.207h73.151a3.208 3.208 0 0 1 3.207 3.206v73.171a3.21 3.21 0 0 1-3.207 3.216h-73.151Z" stroke-linejoin="round" class="s" style="fill: none; stroke: rgb(178, 178, 178); stroke-width: 0.5; stroke-linecap: round; stroke-linejoin: round; stroke-miterlimit: 30;"></path><path d="M413.121 91.588a3.219 3.219 0 0 1-3.217-3.216v-73.17a3.217 3.217 0 0 1 3.217-3.207h73.151a3.208 3.208 0 0 1 3.206 3.206v73.171a3.21 3.21 0 0 1-3.206 3.216h-73.151ZM333.537 91.627a3.219 3.219 0 0 1-3.217-3.216v-73.17a3.217 3.217 0 0 1 3.217-3.207h73.151a3.208 3.208 0 0 1 3.207 3.206v73.171a3.21 3.21 0 0 1-3.207 3.216h-73.151ZM15.28 91.608a3.219 3.219 0 0 1-3.217-3.216V15.22a3.217 3.217 0 0 1 3.216-3.207h73.152a3.208 3.208 0 0 1 3.206 3.207v73.17a3.21 3.21 0 0 1-3.206 3.217H15.279ZM174.457 131.415a3.219 3.219 0 0 1-3.216-3.217V94.834a3.217 3.217 0 0 1 3.216-3.206h33.364a3.208 3.208 0 0 1 3.207 3.206v33.364a3.21 3.21 0 0 1-3.207 3.217h-33.364ZM214.254 131.415a3.219 3.219 0 0 1-3.216-3.217V94.834a3.216 3.216 0 0 1 3.216-3.206h33.374a3.208 3.208 0 0 1 3.206 3.206v33.364a3.21 3.21 0 0 1-3.206 3.217h-33.374Z" stroke-linejoin="round" class="s" style="fill: none; stroke: rgb(178, 178, 178); stroke-width: 0.5; stroke-linecap: round; stroke-linejoin: round; stroke-miterlimit: 30;"></path><path d="M254.051 131.415a3.22 3.22 0 0 1-3.217-3.217V94.834a3.217 3.217 0 0 1 3.217-3.206h33.374a3.208 3.208 0 0 1 3.206 3.206v33.364a3.21 3.21 0 0 1-3.206 3.217h-33.374Z" stroke-linejoin="round" class="s" style="fill: none; stroke: rgb(178, 178, 178); stroke-width: 0.5; stroke-linecap: round; stroke-linejoin: round; stroke-miterlimit: 30;"></path><path d="M293.847 131.415a3.219 3.219 0 0 1-3.216-3.217V94.834a3.217 3.217 0 0 1 3.216-3.206h33.365a3.208 3.208 0 0 1 3.206 3.206v33.364a3.21 3.21 0 0 1-3.206 3.217h-33.365ZM333.644 131.434a3.219 3.219 0 0 1-3.216-3.216V94.844a3.217 3.217 0 0 1 3.216-3.207h33.365a3.208 3.208 0 0 1 3.206 3.207v33.374a3.21 3.21 0 0 1-3.206 3.216h-33.365ZM373.441 131.424a3.218 3.218 0 0 1-3.216-3.216V94.834a3.217 3.217 0 0 1 3.216-3.206h33.374a3.208 3.208 0 0 1 3.207 3.206v33.374a3.21 3.21 0 0 1-3.207 3.216h-33.374Z" stroke-linejoin="round" class="s" style="fill: none; stroke: rgb(178, 178, 178); stroke-width: 0.5; stroke-linecap: round; stroke-linejoin: round; stroke-miterlimit: 30;"></path><path d="M413.238 131.385a3.219 3.219 0 0 1-3.216-3.216V94.795a3.217 3.217 0 0 1 3.216-3.207h33.374a3.208 3.208 0 0 1 3.207 3.207v33.374a3.21 3.21 0 0 1-3.207 3.216h-33.374ZM453.044 131.395a3.219 3.219 0 0 1-3.216-3.216V94.805a3.217 3.217 0 0 1 3.216-3.207h33.375a3.208 3.208 0 0 1 3.206 3.207v33.374a3.21 3.21 0 0 1-3.206 3.216h-33.375Z" stroke-linejoin="round" class="s" style="fill: none; stroke: rgb(178, 178, 178); stroke-width: 0.5; stroke-linecap: round; stroke-linejoin: round; stroke-miterlimit: 30;"></path><path d="M492.841 131.385a3.219 3.219 0 0 1-3.216-3.216V94.795a3.217 3.217 0 0 1 3.216-3.207h33.365a3.208 3.208 0 0 1 3.206 3.207v33.374a3.21 3.21 0 0 1-3.206 3.216h-33.365ZM532.638 131.385a3.219 3.219 0 0 1-3.216-3.216V94.795a3.217 3.217 0 0 1 3.216-3.207h33.364a3.208 3.208 0 0 1 3.207 3.207v33.374a3.21 3.21 0 0 1-3.207 3.216h-33.364ZM572.435 131.385a3.219 3.219 0 0 1-3.216-3.216V94.795a3.217 3.217 0 0 1 3.216-3.207h33.364a3.208 3.208 0 0 1 3.207 3.207v33.374a3.21 3.21 0 0 1-3.207 3.216h-33.364ZM612.232 131.385a3.219 3.219 0 0 1-3.216-3.216V94.795a3.216 3.216 0 0 1 3.216-3.207h33.374a3.208 3.208 0 0 1 3.206 3.207v33.374a3.21 3.21 0 0 1-3.206 3.216h-33.374Z" stroke-linejoin="round" class="s" style="fill: none; stroke: rgb(178, 178, 178); stroke-width: 0.5; stroke-linecap: round; stroke-linejoin: round; stroke-miterlimit: 30;"></path><path d="M652.029 131.385a3.219 3.219 0 0 1-3.217-3.216V94.795a3.217 3.217 0 0 1 3.217-3.207h33.374a3.208 3.208 0 0 1 3.206 3.207v33.374a3.21 3.21 0 0 1-3.206 3.216h-33.374ZM15.26 171.211a3.218 3.218 0 0 1-3.216-3.216v-33.364a3.217 3.217 0 0 1 3.216-3.207h33.374a3.208 3.208 0 0 1 3.206 3.207v33.364a3.21 3.21 0 0 1-3.206 3.216H15.26Z" stroke-linejoin="round" class="s" style="fill: none; stroke: rgb(178, 178, 178); stroke-width: 0.5; stroke-linecap: round; stroke-linejoin: round; stroke-miterlimit: 30;"></path><path d="M55.057 171.211a3.218 3.218 0 0 1-3.217-3.216v-33.364a3.217 3.217 0 0 1 3.217-3.207H88.42a3.208 3.208 0 0 1 3.206 3.207v33.364a3.21 3.21 0 0 1-3.206 3.216H55.057ZM94.853 171.211a3.218 3.218 0 0 1-3.216-3.216v-33.364a3.217 3.217 0 0 1 3.216-3.207h33.375a3.208 3.208 0 0 1 3.206 3.207v33.364a3.21 3.21 0 0 1-3.206 3.216H94.853ZM15.26 211.008a3.219 3.219 0 0 1-3.216-3.216v-33.364a3.217 3.217 0 0 1 3.216-3.207h33.374a3.208 3.208 0 0 1 3.206 3.207v33.364a3.21 3.21 0 0 1-3.206 3.216H15.26Z" stroke-linejoin="round" class="s" style="fill: none; stroke: rgb(178, 178, 178); stroke-width: 0.5; stroke-linecap: round; stroke-linejoin: round; stroke-miterlimit: 30;"></path><path d="M55.057 211.008a3.219 3.219 0 0 1-3.217-3.216v-33.364a3.217 3.217 0 0 1 3.217-3.207H88.42a3.208 3.208 0 0 1 3.206 3.207v33.364a3.21 3.21 0 0 1-3.206 3.216H55.057ZM94.853 211.008a3.219 3.219 0 0 1-3.216-3.216v-33.364a3.217 3.217 0 0 1 3.216-3.207h33.375a3.208 3.208 0 0 1 3.206 3.207v33.364a3.21 3.21 0 0 1-3.206 3.216H94.853ZM134.65 171.211a3.218 3.218 0 0 1-3.216-3.216v-33.364a3.217 3.217 0 0 1 3.216-3.207h33.374a3.209 3.209 0 0 1 3.207 3.207v33.364a3.21 3.21 0 0 1-3.207 3.216H134.65ZM174.457 171.211a3.218 3.218 0 0 1-3.216-3.216v-33.364a3.217 3.217 0 0 1 3.216-3.207h33.364a3.209 3.209 0 0 1 3.207 3.207v33.364a3.21 3.21 0 0 1-3.207 3.216h-33.364ZM194.35 211.008a3.219 3.219 0 0 1-3.216-3.216v-33.364a3.217 3.217 0 0 1 3.216-3.207h33.365a3.208 3.208 0 0 1 3.206 3.207v33.364a3.21 3.21 0 0 1-3.206 3.216H194.35ZM214.254 171.211a3.218 3.218 0 0 1-3.216-3.216v-33.364a3.216 3.216 0 0 1 3.216-3.207h33.374a3.208 3.208 0 0 1 3.206 3.207v33.364a3.21 3.21 0 0 1-3.206 3.216h-33.374Z" stroke-linejoin="round" class="s" style="fill: none; stroke: rgb(178, 178, 178); stroke-width: 0.5; stroke-linecap: round; stroke-linejoin: round; stroke-miterlimit: 30;"></path><path d="M254.051 171.211a3.218 3.218 0 0 1-3.217-3.216v-33.364a3.217 3.217 0 0 1 3.217-3.207h33.374a3.208 3.208 0 0 1 3.206 3.207v33.364a3.21 3.21 0 0 1-3.206 3.216h-33.374Z" stroke-linejoin="round" class="s" style="fill: none; stroke: rgb(178, 178, 178); stroke-width: 0.5; stroke-linecap: round; stroke-linejoin: round; stroke-miterlimit: 30;"></path><path d="M293.847 171.211a3.218 3.218 0 0 1-3.216-3.216v-33.364a3.217 3.217 0 0 1 3.216-3.207h33.365a3.208 3.208 0 0 1 3.206 3.207v33.364a3.21 3.21 0 0 1-3.206 3.216h-33.365ZM333.644 171.211a3.218 3.218 0 0 1-3.216-3.216v-33.374a3.217 3.217 0 0 1 3.216-3.206h33.365a3.208 3.208 0 0 1 3.206 3.206v33.374a3.21 3.21 0 0 1-3.206 3.216h-33.365ZM373.441 171.211a3.218 3.218 0 0 1-3.216-3.216v-33.374a3.217 3.217 0 0 1 3.216-3.206h33.374a3.208 3.208 0 0 1 3.207 3.206v33.374a3.21 3.21 0 0 1-3.207 3.216h-33.374Z" stroke-linejoin="round" class="s" style="fill: none; stroke: rgb(178, 178, 178); stroke-width: 0.5; stroke-linecap: round; stroke-linejoin: round; stroke-miterlimit: 30;"></path><path d="M413.238 171.211a3.218 3.218 0 0 1-3.216-3.216v-33.374a3.217 3.217 0 0 1 3.216-3.206h33.374a3.208 3.208 0 0 1 3.207 3.206v33.374a3.21 3.21 0 0 1-3.207 3.216h-33.374ZM453.044 171.211a3.218 3.218 0 0 1-3.216-3.216v-33.374a3.217 3.217 0 0 1 3.216-3.206h33.375a3.208 3.208 0 0 1 3.206 3.206v33.374a3.21 3.21 0 0 1-3.206 3.216h-33.375ZM472.928 211.008a3.219 3.219 0 0 1-3.216-3.216v-33.374a3.217 3.217 0 0 1 3.216-3.207h33.374a3.209 3.209 0 0 1 3.207 3.207v33.374a3.21 3.21 0 0 1-3.207 3.216h-33.374Z" stroke-linejoin="round" class="s" style="fill: none; stroke: rgb(178, 178, 178); stroke-width: 0.5; stroke-linecap: round; stroke-linejoin: round; stroke-miterlimit: 30;"></path><path d="M492.841 171.211a3.218 3.218 0 0 1-3.216-3.216v-33.374a3.217 3.217 0 0 1 3.216-3.206h33.365a3.208 3.208 0 0 1 3.206 3.206v33.374a3.21 3.21 0 0 1-3.206 3.216h-33.365ZM532.638 171.211a3.218 3.218 0 0 1-3.216-3.216v-33.374a3.217 3.217 0 0 1 3.216-3.206h33.364a3.208 3.208 0 0 1 3.207 3.206v33.374a3.21 3.21 0 0 1-3.207 3.216h-33.364ZM572.435 171.211a3.218 3.218 0 0 1-3.216-3.216v-33.374a3.217 3.217 0 0 1 3.216-3.206h33.364a3.208 3.208 0 0 1 3.207 3.206v33.374a3.21 3.21 0 0 1-3.207 3.216h-33.364ZM612.232 171.211a3.218 3.218 0 0 1-3.216-3.216v-33.374a3.216 3.216 0 0 1 3.216-3.206h33.374a3.208 3.208 0 0 1 3.206 3.206v33.374a3.21 3.21 0 0 1-3.206 3.216h-33.374Z" stroke-linejoin="round" class="s" style="fill: none; stroke: rgb(178, 178, 178); stroke-width: 0.5; stroke-linecap: round; stroke-linejoin: round; stroke-miterlimit: 30;"></path><path d="M652.029 171.211a3.218 3.218 0 0 1-3.217-3.216v-33.374a3.217 3.217 0 0 1 3.217-3.206h33.374a3.208 3.208 0 0 1 3.206 3.206v33.374a3.21 3.21 0 0 1-3.206 3.216h-33.374ZM48.634 211.008H15.25a3.207 3.207 0 0 0-3.206 3.207v33.384a3.207 3.207 0 0 0 3.206 3.206h33.384a3.207 3.207 0 0 0 3.206-3.206v-33.384a3.207 3.207 0 0 0-3.206-3.207Z" stroke-linejoin="round" class="s" style="fill: none; stroke: rgb(178, 178, 178); stroke-width: 0.5; stroke-linecap: round; stroke-linejoin: round; stroke-miterlimit: 30;"></path><path d="M55.057 250.805a3.219 3.219 0 0 1-3.217-3.216v-33.365a3.217 3.217 0 0 1 3.217-3.206H88.42a3.208 3.208 0 0 1 3.206 3.206v33.365a3.21 3.21 0 0 1-3.206 3.216H55.057ZM94.853 250.805a3.219 3.219 0 0 1-3.216-3.216v-33.365a3.217 3.217 0 0 1 3.216-3.206h33.375a3.208 3.208 0 0 1 3.206 3.206v33.365a3.21 3.21 0 0 1-3.206 3.216H94.853Z" stroke-linejoin="round" class="s" style="fill: none; stroke: rgb(178, 178, 178); stroke-width: 0.5; stroke-linecap: round; stroke-linejoin: round; stroke-miterlimit: 30;"></path><path d="M134.65 250.805a3.219 3.219 0 0 1-3.216-3.216v-33.365a3.217 3.217 0 0 1 3.216-3.206h33.374a3.208 3.208 0 0 1 3.207 3.206v33.365a3.21 3.21 0 0 1-3.207 3.216H134.65ZM174.457 250.805a3.219 3.219 0 0 1-3.216-3.216v-33.365a3.217 3.217 0 0 1 3.216-3.206h33.364a3.208 3.208 0 0 1 3.207 3.206v33.365a3.21 3.21 0 0 1-3.207 3.216h-33.364ZM214.254 250.805a3.219 3.219 0 0 1-3.216-3.216v-33.365a3.216 3.216 0 0 1 3.216-3.206h33.374a3.208 3.208 0 0 1 3.206 3.206v33.365a3.21 3.21 0 0 1-3.206 3.216h-33.374Z" stroke-linejoin="round" class="s" style="fill: none; stroke: rgb(178, 178, 178); stroke-width: 0.5; stroke-linecap: round; stroke-linejoin: round; stroke-miterlimit: 30;"></path><path d="M254.051 250.805a3.219 3.219 0 0 1-3.217-3.216v-33.365a3.217 3.217 0 0 1 3.217-3.206h33.374a3.208 3.208 0 0 1 3.206 3.206v33.365a3.21 3.21 0 0 1-3.206 3.216h-33.374Z" stroke-linejoin="round" class="s" style="fill: none; stroke: rgb(178, 178, 178); stroke-width: 0.5; stroke-linecap: round; stroke-linejoin: round; stroke-miterlimit: 30;"></path><path d="M293.847 250.805a3.219 3.219 0 0 1-3.216-3.216v-33.365a3.217 3.217 0 0 1 3.216-3.206h33.365a3.208 3.208 0 0 1 3.206 3.206v33.365a3.21 3.21 0 0 1-3.206 3.216h-33.365ZM333.644 250.805a3.219 3.219 0 0 1-3.216-3.216v-33.374a3.217 3.217 0 0 1 3.216-3.207h33.365a3.208 3.208 0 0 1 3.206 3.207v33.374a3.21 3.21 0 0 1-3.206 3.216h-33.365ZM373.441 250.805a3.219 3.219 0 0 1-3.216-3.216v-33.374a3.217 3.217 0 0 1 3.216-3.207h33.374a3.209 3.209 0 0 1 3.207 3.207v33.374a3.21 3.21 0 0 1-3.207 3.216h-33.374Z" stroke-linejoin="round" class="s" style="fill: none; stroke: rgb(178, 178, 178); stroke-width: 0.5; stroke-linecap: round; stroke-linejoin: round; stroke-miterlimit: 30;"></path><path d="M413.238 250.805a3.219 3.219 0 0 1-3.216-3.216v-33.374a3.217 3.217 0 0 1 3.216-3.207h33.374a3.209 3.209 0 0 1 3.207 3.207v33.374a3.21 3.21 0 0 1-3.207 3.216h-33.374ZM453.044 250.805a3.219 3.219 0 0 1-3.216-3.216v-33.374a3.217 3.217 0 0 1 3.216-3.207h33.375a3.208 3.208 0 0 1 3.206 3.207v33.374a3.21 3.21 0 0 1-3.206 3.216h-33.375Z" stroke-linejoin="round" class="s" style="fill: none; stroke: rgb(178, 178, 178); stroke-width: 0.5; stroke-linecap: round; stroke-linejoin: round; stroke-miterlimit: 30;"></path><path d="M492.841 250.805a3.219 3.219 0 0 1-3.216-3.216v-33.374a3.217 3.217 0 0 1 3.216-3.207h33.365a3.208 3.208 0 0 1 3.206 3.207v33.374a3.21 3.21 0 0 1-3.206 3.216h-33.365ZM532.638 250.805a3.219 3.219 0 0 1-3.216-3.216v-33.374a3.217 3.217 0 0 1 3.216-3.207h33.364a3.209 3.209 0 0 1 3.207 3.207v33.374a3.21 3.21 0 0 1-3.207 3.216h-33.364ZM572.435 250.805a3.219 3.219 0 0 1-3.216-3.216v-33.374a3.217 3.217 0 0 1 3.216-3.207h33.364a3.209 3.209 0 0 1 3.207 3.207v33.374a3.21 3.21 0 0 1-3.207 3.216h-33.364ZM612.232 250.805a3.219 3.219 0 0 1-3.216-3.216v-33.374a3.216 3.216 0 0 1 3.216-3.207h33.374a3.208 3.208 0 0 1 3.206 3.207v33.374a3.21 3.21 0 0 1-3.206 3.216h-33.374Z" stroke-linejoin="round" class="s" style="fill: none; stroke: rgb(178, 178, 178); stroke-width: 0.5; stroke-linecap: round; stroke-linejoin: round; stroke-miterlimit: 30;"></path><path d="M652.029 250.805a3.219 3.219 0 0 1-3.217-3.216v-33.374a3.217 3.217 0 0 1 3.217-3.207h33.374a3.208 3.208 0 0 1 3.206 3.207v33.374a3.21 3.21 0 0 1-3.206 3.216h-33.374ZM651.843 91.588a3.219 3.219 0 0 1-3.216-3.216V54.998a3.216 3.216 0 0 1 3.216-3.206h33.374a3.208 3.208 0 0 1 3.206 3.206v33.374a3.21 3.21 0 0 1-3.206 3.216h-33.374Z" stroke-linejoin="round" class="s" style="fill: none; stroke: rgb(178, 178, 178); stroke-width: 0.5; stroke-linecap: round; stroke-linejoin: round; stroke-miterlimit: 30;"></path><path d="M651.843 51.792a3.219 3.219 0 0 1-3.216-3.217V15.201a3.216 3.216 0 0 1 3.216-3.206h33.374a3.208 3.208 0 0 1 3.206 3.206v33.374a3.21 3.21 0 0 1-3.206 3.217h-33.374ZM640.796 151.289c0-6.658-5.396-12.054-12.053-12.054-6.657 0-12.054 5.396-12.054 12.054 0 6.657 5.397 12.063 12.054 12.063s12.053-5.406 12.053-12.063ZM608.849 60.11a8.29 8.29 0 0 0 8.29-8.29 8.29 8.29 0 1 0-16.579 0 8.29 8.29 0 0 0 8.289 8.29ZM601.009 151.289c0-6.658-5.396-12.054-12.063-12.054-6.667 0-12.053 5.396-12.053 12.054 0 6.657 5.396 12.063 12.053 12.063 6.657 0 12.063-5.406 12.063-12.063ZM561.222 151.289c0-6.658-5.396-12.054-12.053-12.054-6.657 0-12.054 5.396-12.054 12.054 0 6.657 5.397 12.063 12.054 12.063s12.053-5.406 12.053-12.063ZM529.275 60.11a8.29 8.29 0 0 0 8.29-8.29 8.29 8.29 0 1 0-8.29 8.29ZM521.435 151.289c0-6.658-5.396-12.054-12.053-12.054-6.657 0-12.054 5.396-12.054 12.054 0 6.657 5.397 12.063 12.054 12.063s12.053-5.406 12.053-12.063ZM481.648 151.289c0-6.658-5.396-12.054-12.063-12.054-6.667 0-12.054 5.396-12.054 12.054 0 6.657 5.397 12.063 12.054 12.063s12.063-5.406 12.063-12.063ZM449.701 43.54c4.575 0 8.29 3.716 8.29 8.29 0 4.576-3.715 8.29-8.29 8.29-4.575 0-8.299-3.714-8.299-8.29 0-4.574 3.714-8.29 8.299-8.29ZM441.861 151.289c0-6.658-5.396-12.054-12.053-12.054-6.658 0-12.064 5.396-12.064 12.054 0 6.657 5.397 12.063 12.064 12.063s12.053-5.406 12.053-12.063ZM402.074 151.289c0-6.658-5.396-12.054-12.053-12.054-6.658 0-12.054 5.396-12.054 12.054 0 6.657 5.396 12.063 12.054 12.063 6.657 0 12.053-5.406 12.053-12.063ZM370.127 60.11a8.29 8.29 0 1 0 0-16.58 8.29 8.29 0 0 0 0 16.58ZM362.287 151.289c0-6.658-5.396-12.054-12.063-12.054-6.667 0-12.054 5.396-12.054 12.054 0 6.657 5.397 12.063 12.054 12.063s12.063-5.406 12.063-12.063ZM322.5 151.289c0-6.658-5.396-12.054-12.054-12.054-6.657 0-12.063 5.396-12.063 12.054 0 6.657 5.396 12.063 12.063 12.063 6.668 0 12.054-5.406 12.054-12.063ZM282.713 151.289c0-6.658-5.396-12.054-12.054-12.054-6.657 0-12.053 5.396-12.053 12.054 0 6.657 5.396 12.063 12.053 12.063 6.658 0 12.054-5.406 12.054-12.063ZM242.926 151.289c0-6.658-5.396-12.054-12.054-12.054-6.657 0-12.053 5.396-12.053 12.054 0 6.657 5.396 12.063 12.053 12.063 6.658 0 12.054-5.406 12.054-12.063ZM203.139 151.289c0-6.658-5.396-12.054-12.063-12.054-6.667 0-12.054 5.396-12.054 12.054 0 6.657 5.396 12.063 12.054 12.063 6.657 0 12.063-5.406 12.063-12.063ZM163.352 151.289c0-6.658-5.396-12.054-12.054-12.054-6.657 0-12.053 5.396-12.053 12.054 0 6.657 5.396 12.063 12.053 12.063 6.658 0 12.054-5.406 12.054-12.063ZM123.565 151.289c0-6.658-5.397-12.054-12.054-12.054s-12.053 5.396-12.053 12.054c0 6.657 5.396 12.063 12.053 12.063 6.657 0 12.054-5.406 12.054-12.063ZM83.778 151.289c0-6.658-5.397-12.054-12.064-12.054s-12.053 5.396-12.053 12.054c0 6.657 5.396 12.063 12.053 12.063 6.658 0 12.064-5.406 12.064-12.063ZM43.99 151.289c0-6.658-5.396-12.054-12.053-12.054-6.657 0-12.063 5.396-12.063 12.054 0 6.657 5.396 12.063 12.063 12.063 6.667 0 12.054-5.406 12.054-12.063Z" stroke-linejoin="round" class="s" style="fill: none; stroke: rgb(178, 178, 178); stroke-width: 0.5; stroke-linecap: round; stroke-linejoin: round; stroke-miterlimit: 30;"></path><path d="M391.946 51.82c0-12.053-9.775-21.818-21.819-21.818-12.044 0-21.819 9.765-21.819 21.819 0 12.053 9.766 21.82 21.819 21.82 12.054 0 21.819-9.767 21.819-21.82ZM619.26 51.82c0-5.747-4.663-10.4-10.411-10.4a10.396 10.396 0 0 0-10.401 10.4c0 5.749 4.663 10.402 10.401 10.402 5.739 0 10.411-4.653 10.411-10.401Z" stroke-linejoin="round" class="s" style="fill: none; stroke: rgb(178, 178, 178); stroke-width: 0.5; stroke-linecap: round; stroke-linejoin: round; stroke-miterlimit: 30;"></path><path d="M608.849 60.11a8.29 8.29 0 0 0 8.29-8.29 8.29 8.29 0 1 0-16.579 0 8.29 8.29 0 0 0 8.289 8.29Z" stroke-linejoin="round" class="s" style="fill: none; stroke: rgb(178, 178, 178); stroke-width: 0.5; stroke-linecap: round; stroke-linejoin: round; stroke-miterlimit: 30;"></path><path d="M630.669 51.82c0-12.053-9.776-21.818-21.82-21.818-12.043 0-21.819 9.765-21.819 21.819 0 12.053 9.776 21.82 21.819 21.82 12.044 0 21.82-9.767 21.82-21.82ZM460.112 51.82c0-5.747-4.663-10.4-10.401-10.4-5.738 0-10.411 4.653-10.411 10.4 0 5.749 4.663 10.402 10.411 10.402a10.396 10.396 0 0 0 10.401-10.401Z" stroke-linejoin="round" class="s" style="fill: none; stroke: rgb(178, 178, 178); stroke-width: 0.5; stroke-linecap: round; stroke-linejoin: round; stroke-miterlimit: 30;"></path><path d="M457.991 51.82c0-4.574-3.715-8.289-8.29-8.289-4.575 0-8.299 3.715-8.299 8.29 0 4.575 3.714 8.29 8.299 8.29a8.288 8.288 0 0 0 8.29-8.29Z" stroke-linejoin="round" class="s" style="fill: none; stroke: rgb(178, 178, 178); stroke-width: 0.5; stroke-linecap: round; stroke-linejoin: round; stroke-miterlimit: 30;"></path><path d="M471.52 51.82c0-12.053-9.775-21.818-21.819-21.818-12.043 0-21.819 9.765-21.819 21.819 0 12.053 9.776 21.82 21.819 21.82 12.044 0 21.819-9.767 21.819-21.82ZM109.419 36.64a1.864 1.864 0 0 1-2.629 0 1.86 1.86 0 0 1 0-2.62 1.864 1.864 0 0 1 2.629 0 1.86 1.86 0 0 1 0 2.62Z" stroke-linejoin="round" class="s" style="fill: none; stroke: rgb(178, 178, 178); stroke-width: 0.5; stroke-linecap: round; stroke-linejoin: round; stroke-miterlimit: 30;"></path><path d="M118.726 39.152c-3.999 3.988-10.46 3.988-14.439 0-3.979-3.989-3.979-10.46 0-14.44 3.998-3.988 10.46-3.978 14.439 0 3.988 4 3.988 10.46 0 14.44Z" stroke-linejoin="round" class="s" style="fill: none; stroke: rgb(178, 178, 178); stroke-width: 0.5; stroke-linecap: round; stroke-linejoin: round; stroke-miterlimit: 30;"></path><path d="M125.627 31.927c0-7.8-6.325-14.106-14.116-14.106-7.791 0-14.106 6.315-14.106 14.106 0 7.792 6.315 14.117 14.106 14.117 7.791 0 14.116-6.325 14.116-14.117ZM710.565 33.462a1.535 1.535 0 1 0 0-3.07 1.535 1.535 0 0 0 0 3.07ZM732.062 198.271l4.575.127a3.21 3.21 0 0 1 3.128 3.206v18.74a3.21 3.21 0 0 1-3.128 3.206l-4.575.118M640.796 111.511c0-6.667-5.396-12.063-12.053-12.063-6.657 0-12.054 5.396-12.054 12.063 0 6.667 5.397 12.054 12.054 12.054s12.053-5.396 12.053-12.054ZM322.5 111.511c0-6.667-5.396-12.063-12.054-12.063-6.657 0-12.063 5.396-12.063 12.063 0 6.667 5.396 12.054 12.063 12.054 6.668 0 12.054-5.396 12.054-12.054ZM668.53 43.98c6.657 0 12.053-5.396 12.053-12.053 0-6.657-5.396-12.053-12.053-12.053-6.657 0-12.053 5.396-12.053 12.053 0 6.657 5.396 12.054 12.053 12.054ZM680.583 111.511c0-6.667-5.396-12.063-12.053-12.063-6.657 0-12.053 5.396-12.053 12.063 0 6.667 5.396 12.054 12.053 12.054 6.657 0 12.053-5.396 12.053-12.054ZM83.778 191.076c0-6.658-5.397-12.054-12.064-12.054s-12.053 5.396-12.053 12.054c0 6.657 5.396 12.053 12.053 12.053 6.658 0 12.064-5.396 12.064-12.053ZM223.032 191.076c0-6.658-5.396-12.054-12.063-12.054-6.667 0-12.053 5.396-12.053 12.054 0 6.657 5.396 12.053 12.053 12.053 6.657 0 12.063-5.396 12.063-12.053ZM43.99 230.872c0-6.667-5.396-12.063-12.053-12.063-6.657 0-12.063 5.396-12.063 12.063 0 6.667 5.396 12.054 12.063 12.054 6.667 0 12.054-5.396 12.054-12.054ZM680.583 151.289c0-6.658-5.396-12.054-12.053-12.054-6.657 0-12.053 5.396-12.053 12.054 0 6.657 5.396 12.063 12.053 12.063 6.657 0 12.053-5.406 12.053-12.063ZM43.99 191.076c0-6.658-5.396-12.054-12.053-12.054-6.657 0-12.063 5.396-12.063 12.054 0 6.657 5.396 12.053 12.063 12.053 6.667 0 12.054-5.396 12.054-12.053ZM111.511 83.768c6.657 0 12.054-5.397 12.054-12.054 0-6.656-5.397-12.053-12.054-12.053s-12.053 5.397-12.053 12.053c0 6.657 5.396 12.054 12.053 12.054ZM83.778 230.872c0-6.667-5.397-12.063-12.064-12.063s-12.053 5.396-12.053 12.063c0 6.667 5.396 12.054 12.053 12.054 6.658 0 12.064-5.396 12.064-12.054ZM489.488 203.129c6.657 0 12.054-5.396 12.054-12.053 0-6.657-5.397-12.054-12.054-12.054s-12.053 5.397-12.053 12.054 5.396 12.053 12.053 12.053ZM111.511 203.129c6.657 0 12.054-5.396 12.054-12.053 0-6.657-5.397-12.054-12.054-12.054s-12.053 5.397-12.053 12.054 5.396 12.053 12.053 12.053ZM151.298 83.768c6.657 0 12.054-5.397 12.054-12.054 0-6.656-5.397-12.053-12.054-12.053s-12.053 5.397-12.053 12.053c0 6.657 5.396 12.054 12.053 12.054ZM668.53 83.768c6.657 0 12.053-5.397 12.053-12.054 0-6.656-5.396-12.053-12.053-12.053-6.657 0-12.053 5.397-12.053 12.053 0 6.657 5.396 12.054 12.053 12.054ZM123.565 230.872c0-6.667-5.397-12.063-12.054-12.063s-12.053 5.396-12.053 12.063c0 6.667 5.396 12.054 12.053 12.054 6.657 0 12.054-5.396 12.054-12.054ZM203.139 230.872c0-6.667-5.396-12.063-12.063-12.063-6.667 0-12.054 5.396-12.054 12.063 0 6.667 5.396 12.054 12.054 12.054 6.657 0 12.063-5.396 12.063-12.054ZM282.713 230.872c0-6.667-5.396-12.063-12.054-12.063-6.657 0-12.053 5.396-12.053 12.063 0 6.667 5.396 12.054 12.053 12.054 6.658 0 12.054-5.396 12.054-12.054ZM362.287 230.872c0-6.667-5.396-12.063-12.063-12.063-6.667 0-12.054 5.396-12.054 12.063 0 6.667 5.397 12.054 12.054 12.054s12.063-5.396 12.063-12.054ZM481.648 230.872c0-6.667-5.396-12.063-12.063-12.063-6.667 0-12.054 5.396-12.054 12.063 0 6.667 5.397 12.054 12.054 12.054s12.063-5.396 12.063-12.054ZM83.778 111.511c0-6.667-5.397-12.063-12.064-12.063s-12.053 5.396-12.053 12.063c0 6.667 5.396 12.054 12.053 12.054 6.658 0 12.064-5.396 12.064-12.054ZM601.009 111.511c0-6.667-5.396-12.063-12.063-12.063-6.667 0-12.053 5.396-12.053 12.063 0 6.667 5.396 12.054 12.053 12.054 6.657 0 12.063-5.396 12.063-12.054ZM123.565 111.511c0-6.667-5.397-12.063-12.054-12.063s-12.053 5.396-12.053 12.063c0 6.667 5.396 12.054 12.053 12.054 6.657 0 12.054-5.396 12.054-12.054ZM322.5 230.872c0-6.667-5.396-12.063-12.054-12.063-6.657 0-12.063 5.396-12.063 12.063 0 6.667 5.396 12.054 12.063 12.054 6.668 0 12.054-5.396 12.054-12.054ZM640.796 230.872c0-6.667-5.396-12.063-12.053-12.063-6.657 0-12.054 5.396-12.054 12.063 0 6.667 5.397 12.054 12.054 12.054s12.053-5.396 12.053-12.054ZM163.352 230.872c0-6.667-5.396-12.063-12.054-12.063-6.657 0-12.053 5.396-12.053 12.063 0 6.667 5.396 12.054 12.053 12.054 6.658 0 12.054-5.396 12.054-12.054ZM402.074 230.872c0-6.667-5.396-12.063-12.053-12.063-6.658 0-12.054 5.396-12.054 12.063 0 6.667 5.396 12.054 12.054 12.054 6.657 0 12.053-5.396 12.053-12.054ZM441.861 230.872c0-6.667-5.396-12.063-12.053-12.063-6.658 0-12.064 5.396-12.064 12.063 0 6.667 5.397 12.054 12.064 12.054s12.053-5.396 12.053-12.054ZM561.222 111.511c0-6.667-5.396-12.063-12.053-12.063-6.657 0-12.054 5.396-12.054 12.063 0 6.667 5.397 12.054 12.054 12.054s12.053-5.396 12.053-12.054ZM441.861 111.511c0-6.667-5.396-12.063-12.053-12.063-6.658 0-12.064 5.396-12.064 12.063 0 6.667 5.397 12.054 12.064 12.054s12.053-5.396 12.053-12.054ZM362.287 111.511c0-6.667-5.396-12.063-12.063-12.063-6.667 0-12.054 5.396-12.054 12.063 0 6.667 5.397 12.054 12.054 12.054s12.063-5.396 12.063-12.054ZM521.435 111.511c0-6.667-5.396-12.063-12.053-12.063-6.657 0-12.054 5.396-12.054 12.063 0 6.667 5.397 12.054 12.054 12.054s12.053-5.396 12.053-12.054ZM43.99 111.511c0-6.667-5.396-12.063-12.053-12.063-6.657 0-12.063 5.396-12.063 12.063 0 6.667 5.396 12.054 12.063 12.054 6.667 0 12.054-5.396 12.054-12.054ZM561.222 230.872c0-6.667-5.396-12.063-12.053-12.063-6.657 0-12.054 5.396-12.054 12.063 0 6.667 5.397 12.054 12.054 12.054s12.053-5.396 12.053-12.054ZM680.583 230.872c0-6.667-5.396-12.063-12.053-12.063-6.657 0-12.053 5.396-12.053 12.063 0 6.667 5.396 12.054 12.053 12.054 6.657 0 12.053-5.396 12.053-12.054ZM521.435 230.872c0-6.667-5.396-12.063-12.053-12.063-6.657 0-12.054 5.396-12.054 12.063 0 6.667 5.397 12.054 12.054 12.054s12.053-5.396 12.053-12.054ZM242.926 111.511c0-6.667-5.396-12.063-12.054-12.063-6.657 0-12.053 5.396-12.053 12.063 0 6.667 5.396 12.054 12.053 12.054 6.658 0 12.054-5.396 12.054-12.054ZM163.352 111.511c0-6.667-5.396-12.063-12.054-12.063-6.657 0-12.053 5.396-12.053 12.063 0 6.667 5.396 12.054 12.053 12.054 6.658 0 12.054-5.396 12.054-12.054ZM203.139 111.511c0-6.667-5.396-12.063-12.063-12.063-6.667 0-12.054 5.396-12.054 12.063 0 6.667 5.396 12.054 12.054 12.054 6.657 0 12.063-5.396 12.063-12.054ZM282.713 111.511c0-6.667-5.396-12.063-12.054-12.063-6.657 0-12.053 5.396-12.053 12.063 0 6.667 5.396 12.054 12.053 12.054 6.658 0 12.054-5.396 12.054-12.054ZM601.009 230.872c0-6.667-5.396-12.063-12.063-12.063-6.667 0-12.053 5.396-12.053 12.063 0 6.667 5.396 12.054 12.053 12.054 6.657 0 12.063-5.396 12.063-12.054ZM242.926 230.872c0-6.667-5.396-12.063-12.054-12.063-6.657 0-12.053 5.396-12.053 12.063 0 6.667 5.396 12.054 12.053 12.054 6.658 0 12.054-5.396 12.054-12.054ZM402.074 111.511c0-6.667-5.396-12.063-12.053-12.063-6.658 0-12.054 5.396-12.054 12.063 0 6.667 5.396 12.054 12.054 12.054 6.657 0 12.053-5.396 12.053-12.054ZM481.648 111.511c0-6.667-5.396-12.063-12.063-12.063-6.667 0-12.054 5.396-12.054 12.063 0 6.667 5.397 12.054 12.054 12.054s12.063-5.396 12.063-12.054ZM640.796 151.289c0-6.658-5.396-12.054-12.053-12.054-6.657 0-12.054 5.396-12.054 12.054 0 6.657 5.397 12.063 12.054 12.063s12.053-5.406 12.053-12.063ZM322.5 151.289c0-6.658-5.396-12.054-12.054-12.054-6.657 0-12.063 5.396-12.063 12.054 0 6.657 5.396 12.063 12.063 12.063 6.668 0 12.054-5.406 12.054-12.063ZM83.778 151.289c0-6.658-5.397-12.054-12.064-12.054s-12.053 5.396-12.053 12.054c0 6.657 5.396 12.063 12.053 12.063 6.658 0 12.064-5.406 12.064-12.063ZM601.009 151.289c0-6.658-5.396-12.054-12.063-12.054-6.667 0-12.053 5.396-12.053 12.054 0 6.657 5.396 12.063 12.053 12.063 6.657 0 12.063-5.406 12.063-12.063ZM123.565 151.289c0-6.658-5.397-12.054-12.054-12.054s-12.053 5.396-12.053 12.054c0 6.657 5.396 12.063 12.053 12.063 6.657 0 12.054-5.406 12.054-12.063ZM561.222 151.289c0-6.658-5.396-12.054-12.053-12.054-6.657 0-12.054 5.396-12.054 12.054 0 6.657 5.397 12.063 12.054 12.063s12.053-5.406 12.053-12.063ZM441.861 151.289c0-6.658-5.396-12.054-12.053-12.054-6.658 0-12.064 5.396-12.064 12.054 0 6.657 5.397 12.063 12.064 12.063s12.053-5.406 12.053-12.063ZM362.287 151.289c0-6.658-5.396-12.054-12.063-12.054-6.667 0-12.054 5.396-12.054 12.054 0 6.657 5.397 12.063 12.054 12.063s12.063-5.406 12.063-12.063ZM521.435 151.289c0-6.658-5.396-12.054-12.053-12.054-6.657 0-12.054 5.396-12.054 12.054 0 6.657 5.397 12.063 12.054 12.063s12.053-5.406 12.053-12.063ZM43.99 151.289c0-6.658-5.396-12.054-12.053-12.054-6.657 0-12.063 5.396-12.063 12.054 0 6.657 5.396 12.063 12.063 12.063 6.667 0 12.054-5.406 12.054-12.063ZM242.926 151.289c0-6.658-5.396-12.054-12.054-12.054-6.657 0-12.053 5.396-12.053 12.054 0 6.657 5.396 12.063 12.053 12.063 6.658 0 12.054-5.406 12.054-12.063ZM163.352 151.289c0-6.658-5.396-12.054-12.054-12.054-6.657 0-12.053 5.396-12.053 12.054 0 6.657 5.396 12.063 12.053 12.063 6.658 0 12.054-5.406 12.054-12.063ZM203.139 151.289c0-6.658-5.396-12.054-12.063-12.054-6.667 0-12.054 5.396-12.054 12.054 0 6.657 5.396 12.063 12.054 12.063 6.657 0 12.063-5.406 12.063-12.063ZM282.713 151.289c0-6.658-5.396-12.054-12.054-12.054-6.657 0-12.053 5.396-12.053 12.054 0 6.657 5.396 12.063 12.053 12.063 6.658 0 12.054-5.406 12.054-12.063ZM402.074 151.289c0-6.658-5.396-12.054-12.053-12.054-6.658 0-12.054 5.396-12.054 12.054 0 6.657 5.396 12.063 12.054 12.063 6.657 0 12.053-5.406 12.053-12.063ZM481.648 151.289c0-6.658-5.396-12.054-12.063-12.054-6.667 0-12.054 5.396-12.054 12.054 0 6.657 5.397 12.063 12.054 12.063s12.063-5.406 12.063-12.063ZM529.275 203.129c6.657 0 12.054-5.396 12.054-12.053 0-6.657-5.397-12.054-12.054-12.054s-12.053 5.397-12.053 12.054 5.396 12.053 12.053 12.053ZM461.755 191.076c0-6.658-5.397-12.054-12.054-12.054s-12.063 5.396-12.063 12.054c0 6.657 5.396 12.053 12.063 12.053 6.667 0 12.054-5.396 12.054-12.053ZM620.903 191.076c0-6.658-5.396-12.054-12.063-12.054-6.667 0-12.054 5.396-12.054 12.054 0 6.657 5.396 12.053 12.054 12.053 6.657 0 12.063-5.396 12.063-12.053ZM342.393 191.076c0-6.658-5.396-12.054-12.063-12.054-6.667 0-12.053 5.396-12.053 12.054 0 6.657 5.396 12.053 12.053 12.053 6.658 0 12.063-5.396 12.063-12.053ZM183.245 191.076c0-6.658-5.396-12.054-12.053-12.054-6.657 0-12.063 5.396-12.063 12.054 0 6.657 5.396 12.053 12.063 12.053 6.667 0 12.053-5.396 12.053-12.053ZM648.636 203.129c6.657 0 12.054-5.396 12.054-12.053 0-6.657-5.397-12.054-12.054-12.054-6.656 0-12.053 5.397-12.053 12.054s5.397 12.053 12.053 12.053ZM370.127 203.129c6.657 0 12.054-5.396 12.054-12.053 0-6.657-5.397-12.054-12.054-12.054s-12.053 5.397-12.053 12.054 5.396 12.053 12.053 12.053ZM250.766 203.129c6.657 0 12.053-5.396 12.053-12.053 0-6.657-5.396-12.054-12.053-12.054-6.657 0-12.053 5.397-12.053 12.054s5.396 12.053 12.053 12.053ZM551.085 51.82c0-12.053-9.766-21.818-21.82-21.818-12.053 0-21.819 9.765-21.819 21.819 0 12.053 9.776 21.82 21.819 21.82 12.044 0 21.82-9.767 21.82-21.82Z" stroke-linejoin="round" class="s" style="fill: none; stroke: rgb(178, 178, 178); stroke-width: 0.5; stroke-linecap: round; stroke-linejoin: round; stroke-miterlimit: 30;"></path><path d="M529.275 62.222c5.745 0 10.402-4.657 10.402-10.401 0-5.745-4.657-10.401-10.402-10.401-5.744 0-10.401 4.656-10.401 10.4 0 5.745 4.657 10.402 10.401 10.402Z" stroke-linejoin="round" class="s" style="fill: none; stroke: rgb(178, 178, 178); stroke-width: 0.5; stroke-linecap: round; stroke-linejoin: round; stroke-miterlimit: 30;"></path><path d="M529.275 60.11a8.29 8.29 0 0 0 8.29-8.29 8.29 8.29 0 1 0-8.29 8.29Z" stroke-linejoin="round" class="s" style="fill: none; stroke: rgb(178, 178, 178); stroke-width: 0.5; stroke-linecap: round; stroke-linejoin: round; stroke-miterlimit: 30;"></path><path d="M21.027 43.091a1.535 1.535 0 1 0 0-3.07 1.535 1.535 0 0 0 0 3.07ZM53.375 31.282c0-.85-.694-1.535-1.535-1.535-.84 0-1.544.685-1.544 1.535 0 .85.694 1.535 1.544 1.535.85 0 1.535-.684 1.535-1.535ZM41.566 79.027a1.535 1.535 0 1 0 0-3.07 1.535 1.535 0 0 0 0 3.07ZM46.698 79.027a1.535 1.535 0 1 0 0-3.07 1.535 1.535 0 0 0 0 3.07ZM36.434 73.894a1.535 1.535 0 1 0 0-3.07 1.535 1.535 0 0 0 0 3.07ZM21.027 48.224a1.535 1.535 0 1 0 0-3.07 1.535 1.535 0 0 0 0 3.07ZM31.292 73.894a1.535 1.535 0 1 0 0-3.07 1.535 1.535 0 0 0 0 3.07ZM21.027 58.498a1.535 1.535 0 1 0 0-3.07 1.535 1.535 0 0 0 0 3.07ZM21.027 63.63a1.535 1.535 0 1 0 0-3.07 1.535 1.535 0 0 0 0 3.07ZM21.027 68.762a1.535 1.535 0 1 0 0-3.07 1.535 1.535 0 0 0 0 3.07ZM36.434 58.498a1.535 1.535 0 1 0 0-3.07 1.535 1.535 0 0 0 0 3.07ZM21.027 53.356a1.535 1.535 0 1 0 0-3.07 1.535 1.535 0 0 0 0 3.07ZM26.16 43.091a1.535 1.535 0 1 0 0-3.07 1.535 1.535 0 0 0 0 3.07ZM41.566 37.959a1.535 1.535 0 1 0 0-3.07 1.535 1.535 0 0 0 0 3.07ZM31.292 68.762a1.535 1.535 0 1 0 0-3.07 1.535 1.535 0 0 0 0 3.07ZM43.101 21.018c0-.85-.684-1.535-1.535-1.535-.85 0-1.535.684-1.535 1.535 0 .85.685 1.544 1.535 1.544a1.54 1.54 0 0 0 1.535-1.544ZM26.16 53.356a1.535 1.535 0 1 0 0-3.07 1.535 1.535 0 0 0 0 3.07ZM31.292 32.817a1.535 1.535 0 1 0 0-3.07 1.535 1.535 0 0 0 0 3.07ZM41.566 73.894a1.535 1.535 0 1 0 0-3.07 1.535 1.535 0 0 0 0 3.07ZM36.434 63.63a1.535 1.535 0 1 0 0-3.07 1.535 1.535 0 0 0 0 3.07ZM26.16 73.894a1.535 1.535 0 1 0 0-3.07 1.535 1.535 0 0 0 0 3.07ZM36.434 79.027a1.535 1.535 0 1 0 0-3.07 1.535 1.535 0 0 0 0 3.07ZM46.698 73.894a1.535 1.535 0 1 0 0-3.07 1.535 1.535 0 0 0 0 3.07ZM31.292 79.027a1.535 1.535 0 1 0 0-3.07 1.535 1.535 0 0 0 0 3.07ZM36.434 32.817a1.535 1.535 0 1 0 0-3.07 1.535 1.535 0 0 0 0 3.07ZM26.16 27.685a1.535 1.535 0 1 0 0-3.07 1.535 1.535 0 0 0 0 3.07ZM36.434 27.685a1.535 1.535 0 1 0 0-3.07 1.535 1.535 0 0 0 0 3.07ZM41.566 84.169a1.535 1.535 0 1 0 0-3.07 1.535 1.535 0 0 0 0 3.07ZM21.027 37.959a1.535 1.535 0 1 0 0-3.07 1.535 1.535 0 0 0 0 3.07ZM26.16 48.224a1.535 1.535 0 1 0 0-3.07 1.535 1.535 0 0 0 0 3.07ZM41.566 32.817a1.535 1.535 0 1 0 0-3.07 1.535 1.535 0 0 0 0 3.07ZM36.434 43.091a1.535 1.535 0 1 0 0-3.07 1.535 1.535 0 0 0 0 3.07ZM41.566 63.63a1.535 1.535 0 1 0 0-3.07 1.535 1.535 0 0 0 0 3.07ZM26.16 79.027a1.535 1.535 0 1 0 0-3.07 1.535 1.535 0 0 0 0 3.07ZM26.16 58.498a1.535 1.535 0 1 0 0-3.07 1.535 1.535 0 0 0 0 3.07ZM26.16 68.762a1.535 1.535 0 1 0 0-3.07 1.535 1.535 0 0 0 0 3.07ZM26.16 63.63a1.535 1.535 0 1 0 0-3.07 1.535 1.535 0 0 0 0 3.07ZM41.566 58.498a1.535 1.535 0 1 0 0-3.07 1.535 1.535 0 0 0 0 3.07ZM26.16 32.817a1.535 1.535 0 1 0 0-3.07 1.535 1.535 0 0 0 0 3.07ZM46.698 68.762a1.535 1.535 0 1 0 0-3.07 1.535 1.535 0 0 0 0 3.07ZM41.566 27.685a1.535 1.535 0 1 0 0-3.07 1.535 1.535 0 0 0 0 3.07ZM46.698 58.498a1.535 1.535 0 1 0 0-3.07 1.535 1.535 0 0 0 0 3.07ZM46.698 48.224a1.535 1.535 0 1 0 0-3.07 1.535 1.535 0 0 0 0 3.07ZM46.698 37.959a1.535 1.535 0 1 0 0-3.07 1.535 1.535 0 0 0 0 3.07ZM31.292 63.63a1.535 1.535 0 1 0 0-3.07 1.535 1.535 0 0 0 0 3.07ZM36.434 48.224a1.535 1.535 0 1 0 0-3.07 1.535 1.535 0 0 0 0 3.07ZM53.375 36.424c0-.85-.694-1.535-1.535-1.535-.84 0-1.544.685-1.544 1.535 0 .85.694 1.535 1.544 1.535.85 0 1.535-.684 1.535-1.535ZM46.698 32.817a1.535 1.535 0 1 0 0-3.07 1.535 1.535 0 0 0 0 3.07ZM36.434 53.356a1.535 1.535 0 1 0 0-3.07 1.535 1.535 0 0 0 0 3.07ZM46.698 63.63a1.535 1.535 0 1 0 0-3.07 1.535 1.535 0 0 0 0 3.07ZM53.375 21.018c0-.85-.694-1.535-1.535-1.535-.84 0-1.544.684-1.544 1.535 0 .85.694 1.544 1.544 1.544a1.54 1.54 0 0 0 1.535-1.544ZM35.456 83.807c.264.235.606.362.978.362.85 0 1.535-.685 1.535-1.535 0-.85-.685-1.535-1.535-1.535-.85 0-1.535.684-1.535 1.535 0 .47.206.9.548 1.163M41.566 48.224a1.535 1.535 0 1 0 0-3.07 1.535 1.535 0 0 0 0 3.07ZM26.16 37.959a1.535 1.535 0 1 0 0-3.07 1.535 1.535 0 0 0 0 3.07ZM31.292 27.685a1.535 1.535 0 1 0 0-3.07 1.535 1.535 0 0 0 0 3.07ZM53.375 41.556c0-.85-.694-1.534-1.535-1.534-.84 0-1.544.684-1.544 1.534s.694 1.535 1.544 1.535c.85 0 1.535-.684 1.535-1.535ZM48.243 21.018c0-.85-.684-1.535-1.535-1.535-.85 0-1.535.684-1.535 1.535 0 .85.685 1.544 1.535 1.544a1.54 1.54 0 0 0 1.535-1.544ZM31.292 53.356a1.535 1.535 0 1 0 0-3.07 1.535 1.535 0 0 0 0 3.07ZM46.698 27.685a1.535 1.535 0 1 0 0-3.07 1.535 1.535 0 0 0 0 3.07ZM46.698 84.169a1.535 1.535 0 1 0 0-3.07 1.535 1.535 0 0 0 0 3.07ZM36.434 37.959a1.535 1.535 0 1 0 0-3.07 1.535 1.535 0 0 0 0 3.07ZM46.698 43.091a1.535 1.535 0 1 0 0-3.07 1.535 1.535 0 0 0 0 3.07ZM31.292 48.224a1.535 1.535 0 1 0 0-3.07 1.535 1.535 0 0 0 0 3.07ZM31.292 37.959a1.535 1.535 0 1 0 0-3.07 1.535 1.535 0 0 0 0 3.07ZM31.292 43.091a1.535 1.535 0 1 0 0-3.07 1.535 1.535 0 0 0 0 3.07ZM41.566 43.091a1.535 1.535 0 1 0 0-3.07 1.535 1.535 0 0 0 0 3.07ZM31.292 58.498a1.535 1.535 0 1 0 0-3.07 1.535 1.535 0 0 0 0 3.07ZM41.566 53.356a1.535 1.535 0 1 0 0-3.07 1.535 1.535 0 0 0 0 3.07ZM36.434 68.762a1.535 1.535 0 1 0 0-3.07 1.535 1.535 0 0 0 0 3.07ZM53.375 26.15c0-.85-.694-1.535-1.535-1.535-.84 0-1.544.684-1.544 1.535 0 .85.694 1.535 1.544 1.535.85 0 1.535-.685 1.535-1.535ZM41.566 68.762a1.535 1.535 0 1 0 0-3.07 1.535 1.535 0 0 0 0 3.07ZM53.375 77.492c0-.85-.694-1.535-1.535-1.535-.84 0-1.544.684-1.544 1.535 0 .85.694 1.535 1.544 1.535.85 0 1.535-.685 1.535-1.535ZM72.36 58.498a1.535 1.535 0 1 0 0-3.07 1.535 1.535 0 0 0 0 3.07ZM58.508 31.282a1.54 1.54 0 0 0-1.545-1.535c-.85 0-1.535.685-1.535 1.535 0 .85.694 1.535 1.535 1.535.84 0 1.544-.684 1.544-1.535ZM62.095 48.224a1.535 1.535 0 1 0 0-3.07 1.535 1.535 0 0 0 0 3.07ZM58.508 77.492a1.54 1.54 0 0 0-1.545-1.535c-.85 0-1.535.684-1.535 1.535 0 .85.694 1.535 1.535 1.535.84 0 1.544-.685 1.544-1.535ZM67.227 37.959a1.535 1.535 0 1 0 0-3.07 1.535 1.535 0 0 0 0 3.07ZM82.634 48.224a1.535 1.535 0 1 0 0-3.07 1.535 1.535 0 0 0 0 3.07ZM72.36 68.762a1.535 1.535 0 1 0 0-3.07 1.535 1.535 0 0 0 0 3.07ZM72.36 53.356a1.535 1.535 0 1 0 0-3.07 1.535 1.535 0 0 0 0 3.07ZM62.095 43.091a1.535 1.535 0 1 0 0-3.07 1.535 1.535 0 0 0 0 3.07ZM67.227 63.63a1.535 1.535 0 1 0 0-3.07 1.535 1.535 0 0 0 0 3.07ZM67.227 58.498a1.535 1.535 0 1 0 0-3.07 1.535 1.535 0 0 0 0 3.07ZM53.375 72.36c0-.85-.694-1.535-1.535-1.535-.84 0-1.544.684-1.544 1.535 0 .85.694 1.534 1.544 1.534.85 0 1.535-.684 1.535-1.534ZM72.36 48.224a1.535 1.535 0 1 0 0-3.07 1.535 1.535 0 0 0 0 3.07ZM62.095 32.817a1.535 1.535 0 1 0 0-3.07 1.535 1.535 0 0 0 0 3.07ZM62.095 79.027a1.535 1.535 0 1 0 0-3.07 1.535 1.535 0 0 0 0 3.07ZM58.508 51.82a1.54 1.54 0 0 0-1.545-1.534c-.85 0-1.535.684-1.535 1.535 0 .85.694 1.535 1.535 1.535.84 0 1.544-.685 1.544-1.535ZM77.492 43.091a1.535 1.535 0 1 0 0-3.07 1.535 1.535 0 0 0 0 3.07ZM67.227 84.169a1.535 1.535 0 1 0 0-3.07 1.535 1.535 0 0 0 0 3.07ZM72.36 27.685a1.535 1.535 0 1 0 0-3.07 1.535 1.535 0 0 0 0 3.07ZM53.375 62.095c0-.85-.694-1.535-1.535-1.535-.84 0-1.544.685-1.544 1.535 0 .85.694 1.535 1.544 1.535.85 0 1.535-.684 1.535-1.535ZM67.227 79.027a1.535 1.535 0 1 0 0-3.07 1.535 1.535 0 0 0 0 3.07ZM67.227 32.817a1.535 1.535 0 1 0 0-3.07 1.535 1.535 0 0 0 0 3.07ZM72.36 37.959a1.535 1.535 0 1 0 0-3.07 1.535 1.535 0 0 0 0 3.07ZM67.227 68.762a1.535 1.535 0 1 0 0-3.07 1.535 1.535 0 0 0 0 3.07ZM77.492 48.224a1.535 1.535 0 1 0 0-3.07 1.535 1.535 0 0 0 0 3.07ZM67.227 53.356a1.535 1.535 0 1 0 0-3.07 1.535 1.535 0 0 0 0 3.07ZM72.36 63.63a1.535 1.535 0 1 0 0-3.07 1.535 1.535 0 0 0 0 3.07ZM67.227 48.224a1.535 1.535 0 1 0 0-3.07 1.535 1.535 0 0 0 0 3.07ZM62.095 63.63a1.535 1.535 0 1 0 0-3.07 1.535 1.535 0 0 0 0 3.07ZM62.095 58.498a1.535 1.535 0 1 0 0-3.07 1.535 1.535 0 0 0 0 3.07ZM72.36 73.894a1.535 1.535 0 1 0 0-3.07 1.535 1.535 0 0 0 0 3.07ZM82.634 58.498a1.535 1.535 0 1 0 0-3.07 1.535 1.535 0 0 0 0 3.07ZM82.634 63.63a1.535 1.535 0 1 0 0-3.07 1.535 1.535 0 0 0 0 3.07ZM77.492 58.498a1.535 1.535 0 1 0 0-3.07 1.535 1.535 0 0 0 0 3.07ZM82.634 43.091a1.535 1.535 0 1 0 0-3.07 1.535 1.535 0 0 0 0 3.07ZM72.36 32.817a1.535 1.535 0 1 0 0-3.07 1.535 1.535 0 0 0 0 3.07ZM77.492 63.63a1.535 1.535 0 1 0 0-3.07 1.535 1.535 0 0 0 0 3.07ZM77.492 37.959a1.535 1.535 0 1 0 0-3.07 1.535 1.535 0 0 0 0 3.07ZM82.634 37.959a1.535 1.535 0 1 0 0-3.07 1.535 1.535 0 0 0 0 3.07ZM58.508 36.424a1.54 1.54 0 0 0-1.545-1.535c-.85 0-1.535.685-1.535 1.535 0 .85.694 1.535 1.535 1.535.84 0 1.544-.684 1.544-1.535ZM62.095 53.356a1.535 1.535 0 1 0 0-3.07 1.535 1.535 0 0 0 0 3.07ZM62.095 37.959a1.535 1.535 0 1 0 0-3.07 1.535 1.535 0 0 0 0 3.07ZM77.492 32.817a1.535 1.535 0 1 0 0-3.07 1.535 1.535 0 0 0 0 3.07ZM62.095 68.762a1.535 1.535 0 1 0 0-3.07 1.535 1.535 0 0 0 0 3.07ZM58.508 41.556a1.54 1.54 0 0 0-1.545-1.534c-.85 0-1.535.684-1.535 1.534s.694 1.535 1.535 1.535c.84 0 1.544-.684 1.544-1.535ZM77.492 79.027a1.535 1.535 0 1 0 0-3.07 1.535 1.535 0 0 0 0 3.07ZM58.508 62.095a1.54 1.54 0 0 0-1.545-1.535c-.85 0-1.535.685-1.535 1.535 0 .85.694 1.535 1.535 1.535.84 0 1.544-.684 1.544-1.535ZM82.634 53.356a1.535 1.535 0 1 0 0-3.07 1.535 1.535 0 0 0 0 3.07ZM72.36 43.091a1.535 1.535 0 1 0 0-3.07 1.535 1.535 0 0 0 0 3.07ZM62.095 27.685a1.535 1.535 0 1 0 0-3.07 1.535 1.535 0 0 0 0 3.07ZM58.508 46.689a1.54 1.54 0 0 0-1.545-1.535c-.85 0-1.535.684-1.535 1.535 0 .85.694 1.535 1.535 1.535.84 0 1.544-.685 1.544-1.535ZM67.227 43.091a1.535 1.535 0 1 0 0-3.07 1.535 1.535 0 0 0 0 3.07ZM53.375 46.689c0-.85-.694-1.535-1.535-1.535-.84 0-1.544.684-1.544 1.535 0 .85.694 1.535 1.544 1.535.85 0 1.535-.685 1.535-1.535ZM72.36 79.027a1.535 1.535 0 1 0 0-3.07 1.535 1.535 0 0 0 0 3.07ZM77.492 73.894a1.535 1.535 0 1 0 0-3.07 1.535 1.535 0 0 0 0 3.07ZM77.492 53.356a1.535 1.535 0 1 0 0-3.07 1.535 1.535 0 0 0 0 3.07ZM53.375 51.82c0-.85-.694-1.534-1.535-1.534-.84 0-1.544.684-1.544 1.535 0 .85.694 1.535 1.544 1.535.85 0 1.535-.685 1.535-1.535ZM67.227 27.685a1.535 1.535 0 1 0 0-3.07 1.535 1.535 0 0 0 0 3.07ZM58.508 21.018a1.54 1.54 0 0 0-1.545-1.535c-.85 0-1.535.684-1.535 1.535 0 .85.694 1.544 1.535 1.544.84 0 1.544-.694 1.544-1.544ZM58.508 82.634a1.54 1.54 0 0 0-1.545-1.535c-.85 0-1.535.684-1.535 1.535 0 .85.694 1.535 1.535 1.535.84 0 1.544-.685 1.544-1.535ZM53.375 82.634c0-.85-.694-1.535-1.535-1.535-.84 0-1.544.684-1.544 1.535 0 .85.694 1.535 1.544 1.535.85 0 1.535-.685 1.535-1.535ZM58.508 72.36a1.54 1.54 0 0 0-1.545-1.535c-.85 0-1.535.684-1.535 1.535 0 .85.694 1.534 1.535 1.534.84 0 1.544-.684 1.544-1.534ZM53.375 56.963c0-.85-.694-1.535-1.535-1.535-.84 0-1.544.684-1.544 1.535 0 .85.694 1.535 1.544 1.535.85 0 1.535-.685 1.535-1.535ZM58.508 26.15a1.54 1.54 0 0 0-1.545-1.535c-.85 0-1.535.684-1.535 1.535 0 .85.694 1.535 1.535 1.535.84 0 1.544-.685 1.544-1.535ZM53.375 67.227c0-.85-.694-1.534-1.535-1.534-.84 0-1.544.684-1.544 1.534s.694 1.535 1.544 1.535c.85 0 1.535-.684 1.535-1.535ZM58.508 67.227a1.54 1.54 0 0 0-1.545-1.534c-.85 0-1.535.684-1.535 1.534s.694 1.535 1.535 1.535c.84 0 1.544-.684 1.544-1.535ZM82.634 68.762a1.535 1.535 0 1 0 0-3.07 1.535 1.535 0 0 0 0 3.07ZM62.095 84.169a1.535 1.535 0 1 0 0-3.07 1.535 1.535 0 0 0 0 3.07ZM67.227 73.894a1.535 1.535 0 1 0 0-3.07 1.535 1.535 0 0 0 0 3.07ZM62.095 22.562a1.54 1.54 0 0 0 1.535-1.544c0-.85-.684-1.535-1.535-1.535-.85 0-1.535.684-1.535 1.535 0 .85.685 1.544 1.535 1.544ZM77.492 27.685a1.535 1.535 0 1 0 0-3.07 1.535 1.535 0 0 0 0 3.07ZM77.492 68.762a1.535 1.535 0 1 0 0-3.07 1.535 1.535 0 0 0 0 3.07ZM58.508 56.963a1.54 1.54 0 0 0-1.545-1.535c-.85 0-1.535.684-1.535 1.535 0 .85.694 1.535 1.535 1.535.84 0 1.544-.685 1.544-1.535ZM62.095 73.894a1.535 1.535 0 1 0 0-3.07 1.535 1.535 0 0 0 0 3.07Z" class="s" style="fill: none; stroke: rgb(178, 178, 178); stroke-width: 0.5; stroke-linecap: round; stroke-linejoin: round; stroke-miterlimit: 30;"></path><path d="m36.082 84.13-.626-.323-.02-.01M46.698 53.365a1.545 1.545 0 1 0 0-3.089 1.545 1.545 0 0 0 0 3.09Z" class="s" style="fill: none; stroke: rgb(178, 178, 178); stroke-width: 0.5; stroke-linecap: round; stroke-linejoin: round; stroke-miterlimit: 30;"></path><path d="M350.497 101.667c.968 0 1.76.792 1.76 1.76s-.792 1.759-1.76 1.759a1.764 1.764 0 0 1-1.759-1.759c0-.968.792-1.76 1.759-1.76Zm0-.489a2.249 2.249 0 1 0 .002 4.498 2.249 2.249 0 0 0-.002-4.498ZM509.646 101.667c.967 0 1.759.792 1.759 1.76s-.792 1.759-1.759 1.759c-.968 0-1.76-.791-1.76-1.759 0-.968.792-1.76 1.76-1.76Zm0-.489a2.25 2.25 0 1 0 0 4.498 2.25 2.25 0 0 0 0-4.498ZM430.072 101.667c.967 0 1.759.792 1.759 1.76s-.792 1.759-1.759 1.759c-.968 0-1.76-.791-1.76-1.759 0-.968.792-1.76 1.76-1.76Zm0-.489a2.25 2.25 0 1 0 0 4.498 2.25 2.25 0 0 0 0-4.498ZM469.859 101.667c.967 0 1.759.792 1.759 1.76s-.792 1.759-1.759 1.759c-.968 0-1.76-.791-1.76-1.759 0-.968.792-1.76 1.76-1.76Zm0-.489a2.25 2.25 0 1 0 0 4.498 2.25 2.25 0 0 0 0-4.498ZM549.433 101.667c.967 0 1.759.792 1.759 1.76s-.792 1.759-1.759 1.759c-.968 0-1.76-.791-1.76-1.759 0-.968.792-1.76 1.76-1.76Zm0-.489a2.25 2.25 0 1 0 0 4.498 2.25 2.25 0 0 0 0-4.498ZM629.007 101.667c.968 0 1.759.792 1.759 1.76s-.791 1.759-1.759 1.759c-.968 0-1.76-.791-1.76-1.759 0-.968.792-1.76 1.76-1.76Zm0-.489a2.25 2.25 0 1 0 0 4.498 2.25 2.25 0 0 0 0-4.498ZM390.285 101.667c.967 0 1.759.792 1.759 1.76s-.792 1.759-1.759 1.759c-.968 0-1.76-.791-1.76-1.759 0-.968.792-1.76 1.76-1.76Zm0-.489a2.25 2.25 0 1 0 0 4.498 2.25 2.25 0 0 0 0-4.498ZM589.22 101.667c.968 0 1.759.792 1.759 1.76s-.791 1.759-1.759 1.759c-.968 0-1.76-.791-1.76-1.759 0-.968.792-1.76 1.76-1.76Zm0-.489a2.25 2.25 0 1 0 0 4.498 2.25 2.25 0 0 0 0-4.498ZM549.433 141.454c.968 0 1.759.792 1.759 1.76s-.791 1.759-1.759 1.759c-.968 0-1.76-.791-1.76-1.759 0-.968.792-1.76 1.76-1.76Zm0-.489a2.25 2.25 0 1 0 0 4.498 2.25 2.25 0 0 0 0-4.498ZM32.201 141.454c.968 0 1.76.792 1.76 1.76s-.792 1.759-1.76 1.759-1.76-.791-1.76-1.759c0-.968.792-1.76 1.76-1.76Zm0-.489a2.249 2.249 0 1 0 .001 4.498 2.249 2.249 0 0 0 0-4.498ZM350.497 141.454c.968 0 1.76.792 1.76 1.76s-.792 1.759-1.76 1.759a1.764 1.764 0 0 1-1.759-1.759c0-.968.792-1.76 1.759-1.76Zm0-.489a2.249 2.249 0 1 0 .002 4.498 2.249 2.249 0 0 0-.002-4.498ZM390.285 141.454c.967 0 1.759.792 1.759 1.76s-.792 1.759-1.759 1.759c-.968 0-1.76-.791-1.76-1.759 0-.968.792-1.76 1.76-1.76Zm0-.489a2.25 2.25 0 1 0 0 4.498 2.25 2.25 0 0 0 0-4.498ZM509.646 141.454c.967 0 1.759.792 1.759 1.76s-.792 1.759-1.759 1.759c-.968 0-1.76-.791-1.76-1.759 0-.968.792-1.76 1.76-1.76Zm0-.489a2.25 2.25 0 1 0 0 4.498 2.25 2.25 0 0 0 0-4.498ZM151.562 141.454c.968 0 1.76.792 1.76 1.76s-.792 1.759-1.76 1.759a1.763 1.763 0 0 1-1.759-1.759c0-.968.791-1.76 1.759-1.76Zm0-.489a2.249 2.249 0 1 0 .002 4.498 2.249 2.249 0 0 0-.002-4.498ZM231.136 141.454c.968 0 1.76.792 1.76 1.76s-.792 1.759-1.76 1.759a1.764 1.764 0 0 1-1.759-1.759c0-.968.792-1.76 1.759-1.76Zm0-.489a2.249 2.249 0 1 0 .002 4.498 2.249 2.249 0 0 0-.002-4.498ZM589.22 141.454c.968 0 1.759.792 1.759 1.76s-.791 1.759-1.759 1.759c-.968 0-1.76-.791-1.76-1.759 0-.968.792-1.76 1.76-1.76Zm0-.489a2.25 2.25 0 1 0 0 4.498 2.25 2.25 0 0 0 0-4.498ZM629.007 141.454c.968 0 1.759.792 1.759 1.76s-.791 1.759-1.759 1.759c-.968 0-1.76-.791-1.76-1.759 0-.968.792-1.76 1.76-1.76Zm0-.489a2.25 2.25 0 1 0 0 4.498 2.25 2.25 0 0 0 0-4.498ZM111.775 141.454c.968 0 1.76.792 1.76 1.76s-.792 1.759-1.76 1.759a1.763 1.763 0 0 1-1.759-1.759c0-.968.791-1.76 1.759-1.76Zm0-.489a2.249 2.249 0 1 0 .002 4.498 2.249 2.249 0 0 0-.002-4.498ZM430.072 141.454c.967 0 1.759.792 1.759 1.76s-.792 1.759-1.759 1.759c-.968 0-1.76-.791-1.76-1.759 0-.968.792-1.76 1.76-1.76Zm0-.489a2.25 2.25 0 1 0 0 4.498 2.25 2.25 0 0 0 0-4.498ZM270.923 141.454c.968 0 1.76.792 1.76 1.76s-.792 1.759-1.76 1.759a1.764 1.764 0 0 1-1.759-1.759c0-.968.792-1.76 1.759-1.76Zm0-.489a2.249 2.249 0 1 0 .002 4.498 2.249 2.249 0 0 0-.002-4.498ZM469.859 141.454c.967 0 1.759.792 1.759 1.76s-.792 1.759-1.759 1.759c-.968 0-1.76-.791-1.76-1.759 0-.968.792-1.76 1.76-1.76Zm0-.489a2.25 2.25 0 1 0 0 4.498 2.25 2.25 0 0 0 0-4.498ZM71.988 141.454c.968 0 1.76.792 1.76 1.76s-.792 1.759-1.76 1.759-1.76-.791-1.76-1.759c0-.968.792-1.76 1.76-1.76Zm0-.489a2.249 2.249 0 1 0 .001 4.498 2.249 2.249 0 0 0 0-4.498ZM310.71 141.454c.968 0 1.76.792 1.76 1.76s-.792 1.759-1.76 1.759a1.764 1.764 0 0 1-1.759-1.759c0-.968.792-1.76 1.759-1.76Zm0-.489a2.249 2.249 0 1 0 .002 4.498 2.249 2.249 0 0 0-.002-4.498ZM191.349 141.454c.968 0 1.76.792 1.76 1.76s-.792 1.759-1.76 1.759a1.764 1.764 0 0 1-1.759-1.759c0-.968.792-1.76 1.759-1.76Zm0-.489a2.249 2.249 0 1 0 .002 4.498 2.249 2.249 0 0 0-.002-4.498ZM489.752 181.241c.968 0 1.76.792 1.76 1.76s-.792 1.759-1.76 1.759a1.763 1.763 0 0 1-1.759-1.759c0-.968.791-1.76 1.759-1.76Zm0-.489a2.249 2.249 0 1 0 .002 4.498 2.249 2.249 0 0 0-.002-4.498ZM211.243 181.241c.968 0 1.759.792 1.759 1.76s-.791 1.759-1.759 1.759c-.968 0-1.76-.791-1.76-1.759 0-.968.792-1.76 1.76-1.76Zm0-.489a2.25 2.25 0 1 0 0 4.498 2.25 2.25 0 0 0 0-4.498ZM648.9 181.241c.968 0 1.76.792 1.76 1.76s-.792 1.759-1.76 1.759a1.764 1.764 0 0 1-1.759-1.759c0-.968.792-1.76 1.759-1.76Zm0-.489a2.249 2.249 0 1 0 .002 4.498 2.249 2.249 0 0 0-.002-4.498ZM251.03 181.241c.968 0 1.76.792 1.76 1.76s-.792 1.759-1.76 1.759-1.76-.791-1.76-1.759c0-.968.792-1.76 1.76-1.76Zm0-.489a2.25 2.25 0 1 0 0 4.498 2.25 2.25 0 0 0 0-4.498ZM370.391 181.241c.968 0 1.76.792 1.76 1.76s-.792 1.759-1.76 1.759-1.76-.791-1.76-1.759c0-.968.792-1.76 1.76-1.76Zm0-.489a2.248 2.248 0 1 0 0 4.497 2.248 2.248 0 0 0 0-4.497ZM529.539 181.241c.968 0 1.76.792 1.76 1.76s-.792 1.759-1.76 1.759a1.763 1.763 0 0 1-1.759-1.759c0-.968.791-1.76 1.759-1.76Zm0-.489a2.249 2.249 0 1 0 .002 4.498 2.249 2.249 0 0 0-.002-4.498ZM171.456 181.241c.968 0 1.759.792 1.759 1.76s-.791 1.759-1.759 1.759c-.968 0-1.76-.791-1.76-1.759 0-.968.792-1.76 1.76-1.76Zm0-.489a2.25 2.25 0 1 0 0 4.498 2.25 2.25 0 0 0 0-4.498ZM449.965 181.241c.968 0 1.76.792 1.76 1.76s-.792 1.759-1.76 1.759a1.763 1.763 0 0 1-1.759-1.759c0-.968.791-1.76 1.759-1.76Zm0-.489a2.249 2.249 0 1 0 .002 4.498 2.249 2.249 0 0 0-.002-4.498ZM330.604 181.241c.968 0 1.76.792 1.76 1.76s-.792 1.759-1.76 1.759-1.76-.791-1.76-1.759c0-.968.792-1.76 1.76-1.76Zm0-.489a2.248 2.248 0 1 0 0 4.497 2.248 2.248 0 0 0 0-4.497ZM609.113 181.241c.968 0 1.76.792 1.76 1.76s-.792 1.759-1.76 1.759a1.764 1.764 0 0 1-1.759-1.759c0-.968.792-1.76 1.759-1.76Zm0-.489a2.249 2.249 0 1 0 .002 4.498 2.249 2.249 0 0 0-.002-4.498ZM509.646 221.028c.967 0 1.759.792 1.759 1.76s-.792 1.76-1.759 1.76c-.968 0-1.76-.792-1.76-1.76s.792-1.76 1.76-1.76Zm0-.488a2.248 2.248 0 1 0-.001 4.497 2.248 2.248 0 0 0 .001-4.497ZM151.562 221.028c.968 0 1.76.792 1.76 1.76s-.792 1.76-1.76 1.76a1.764 1.764 0 0 1-1.759-1.76c0-.968.791-1.76 1.759-1.76Zm0-.488a2.248 2.248 0 1 0 0 4.496 2.248 2.248 0 0 0 0-4.496ZM668.794 221.028c.968 0 1.76.792 1.76 1.76s-.792 1.76-1.76 1.76-1.76-.792-1.76-1.76.792-1.76 1.76-1.76Zm0-.488a2.247 2.247 0 1 0-.001 4.495 2.247 2.247 0 0 0 .001-4.495ZM589.22 221.028c.968 0 1.759.792 1.759 1.76s-.791 1.76-1.759 1.76c-.968 0-1.76-.792-1.76-1.76s.792-1.76 1.76-1.76Zm0-.488a2.248 2.248 0 1 0-.001 4.497 2.248 2.248 0 0 0 .001-4.497ZM430.072 221.028c.967 0 1.759.792 1.759 1.76s-.792 1.76-1.759 1.76c-.968 0-1.76-.792-1.76-1.76s.792-1.76 1.76-1.76Zm0-.488a2.248 2.248 0 1 0-.001 4.497 2.248 2.248 0 0 0 .001-4.497ZM191.349 221.028c.968 0 1.76.792 1.76 1.76s-.792 1.76-1.76 1.76a1.765 1.765 0 0 1-1.759-1.76c0-.968.792-1.76 1.759-1.76Zm0-.488a2.248 2.248 0 1 0 0 4.496 2.248 2.248 0 0 0 0-4.496ZM350.497 221.028c.968 0 1.76.792 1.76 1.76s-.792 1.76-1.76 1.76a1.765 1.765 0 0 1-1.759-1.76c0-.968.792-1.76 1.759-1.76Zm0-.488a2.248 2.248 0 1 0 0 4.496 2.248 2.248 0 0 0 0-4.496ZM310.71 221.028c.968 0 1.76.792 1.76 1.76s-.792 1.76-1.76 1.76a1.765 1.765 0 0 1-1.759-1.76c0-.968.792-1.76 1.759-1.76Zm0-.488a2.248 2.248 0 1 0 0 4.496 2.248 2.248 0 0 0 0-4.496ZM469.859 221.028c.967 0 1.759.792 1.759 1.76s-.792 1.76-1.759 1.76c-.968 0-1.76-.792-1.76-1.76s.792-1.76 1.76-1.76Zm0-.488a2.248 2.248 0 1 0-.001 4.497 2.248 2.248 0 0 0 .001-4.497ZM270.923 221.028c.968 0 1.76.792 1.76 1.76s-.792 1.76-1.76 1.76a1.765 1.765 0 0 1-1.759-1.76c0-.968.792-1.76 1.759-1.76Zm0-.488a2.248 2.248 0 1 0 0 4.496 2.248 2.248 0 0 0 0-4.496ZM231.136 221.028c.968 0 1.76.792 1.76 1.76s-.792 1.76-1.76 1.76a1.765 1.765 0 0 1-1.759-1.76c0-.968.792-1.76 1.759-1.76Zm0-.488a2.248 2.248 0 1 0 0 4.496 2.248 2.248 0 0 0 0-4.496ZM549.433 221.028c.968 0 1.759.792 1.759 1.76s-.791 1.76-1.759 1.76c-.968 0-1.76-.792-1.76-1.76s.792-1.76 1.76-1.76Zm0-.488a2.248 2.248 0 1 0-.001 4.497 2.248 2.248 0 0 0 .001-4.497ZM390.285 221.028c.967 0 1.759.792 1.759 1.76s-.792 1.76-1.759 1.76c-.968 0-1.76-.792-1.76-1.76s.792-1.76 1.76-1.76Zm0-.488a2.248 2.248 0 1 0-.001 4.497 2.248 2.248 0 0 0 .001-4.497ZM629.007 221.028c.968 0 1.759.792 1.759 1.76s-.791 1.76-1.759 1.76c-.968 0-1.76-.792-1.76-1.76s.792-1.76 1.76-1.76Zm0-.488a2.248 2.248 0 1 0-.001 4.497 2.248 2.248 0 0 0 .001-4.497Z" class="f" style="fill: rgb(178, 178, 178);"></path><path d="M52.095 262.311v1.408c0 .43.342.772.772.772h78.039c.43 0 .772-.342.772-.772v-1.408H52.095Z" stroke-linejoin="round" class="s" style="fill: none; stroke: rgb(178, 178, 178); stroke-width: 0.5; stroke-linecap: round; stroke-linejoin: round; stroke-miterlimit: 30;"></path><path d="M371.926 251.656h-3.08v10.655h3.08v-10.655Z" stroke-linejoin="round" class="f s" style="fill: rgb(178, 178, 178); stroke: rgb(178, 178, 178); stroke-width: 0.5; stroke-linecap: round; stroke-linejoin: round; stroke-miterlimit: 30;"></path><path d="M370.127 62.222c5.745 0 10.401-4.657 10.401-10.401 0-5.745-4.656-10.401-10.401-10.401-5.744 0-10.401 4.656-10.401 10.4 0 5.745 4.657 10.402 10.401 10.402Z" stroke-linejoin="round" class="s" style="fill: none; stroke: rgb(178, 178, 178); stroke-width: 0.5; stroke-linecap: round; stroke-linejoin: round; stroke-miterlimit: 30;"></path><path d="M709.021.489H13.334C6.237.489.489 6.227.489 13.324v236.161c0 7.088 5.748 12.836 12.845 12.836h705.893c7.087 0 12.845-5.739 12.845-12.836V13.325c0-7.088-5.748-12.836-12.845-12.836h-10.206Z" stroke-linejoin="round" class="s" style="fill: none; stroke: rgb(178, 178, 178); stroke-width: 0.5; stroke-linecap: round; stroke-linejoin: round; stroke-miterlimit: 30;"></path><path d="M710.859 89.047v44.919" stroke-linejoin="round" class="s" style="fill: none; stroke: rgb(178, 178, 178); stroke-width: 0.5; stroke-linecap: round; stroke-linejoin: round; stroke-miterlimit: 30;"></path><path d="M342.628 115.363v-6.951c-.537.479-.87.665-1.671 1.105v-.665c.674-.293 1.192-.684 1.71-1.202h.616v7.703h-.665l.01.01ZM312.656 114.688v2.601h-1.046v-2.601h-5.211v-1.124l4.957-7.879h1.3v8.114h1.779v.88h-1.779v.009Zm-1.027-7.898-4.311 7.009h4.311v-7.009ZM270.826 117.465c-1.985 0-3.5-1.076-3.608-3.236h1.076c0 1.505 1.28 2.375 2.61 2.375 1.408 0 2.678-.899 2.678-2.483 0-1.583-1.251-2.434-2.659-2.434-.205 0-.42.02-.625.049v-.948c.205.029.43.049.645.049 1.281 0 2.424-.772 2.424-2.21 0-1.437-1.183-2.258-2.502-2.258-1.427 0-2.258.773-2.434 2.258h-1.056c.078-2.033 1.671-3.128 3.5-3.128 1.828 0 3.558.949 3.558 3.08 0 1.378-.919 2.307-2.131 2.659 1.447.273 2.424 1.407 2.424 2.952 0 2.229-1.975 3.284-3.881 3.284l-.019-.009ZM227.529 117.279v-1.105c1.633-1.495 4.36-4.203 5.387-6.129.244-.45.371-.978.371-1.496 0-1.378-.919-2.199-2.209-2.199-1.398 0-2.346.928-2.327 2.405h-1.095c.03-2.102 1.476-3.285 3.432-3.285 1.955 0 3.284.997 3.284 2.982 0 1.671-1.202 3.079-2.199 4.272-1.056 1.27-2.356 2.483-3.529 3.646h5.875v.919h-6.99v-.01ZM191.066 117.279v-10.46c-.802.723-1.32.997-2.522 1.672v-.997c1.007-.45 1.798-1.027 2.58-1.809h.929v11.594h-.997.01ZM380.001 115.363v-.733c1.085-.988 2.893-2.796 3.578-4.067.156-.293.244-.645.244-.987 0-.919-.606-1.457-1.466-1.457-.929 0-1.555.616-1.545 1.594h-.723c.019-1.398.977-2.18 2.277-2.18 1.301 0 2.18.664 2.18 1.984 0 1.105-.801 2.043-1.456 2.835-.704.841-1.564 1.652-2.346 2.415h3.9v.606h-4.643v-.01ZM422.036 115.48c-1.32 0-2.327-.713-2.395-2.15h.714c0 .997.85 1.573 1.74 1.573.938 0 1.779-.596 1.779-1.652 0-1.055-.831-1.622-1.77-1.622-.136 0-.273.009-.41.029v-.626c.137.02.283.03.43.03.851 0 1.613-.509 1.613-1.467 0-.958-.792-1.505-1.662-1.505-.948 0-1.505.508-1.623 1.505h-.703c.048-1.349 1.104-2.082 2.326-2.082s2.366.626 2.366 2.043c0 .919-.606 1.535-1.418 1.77.958.185 1.613.938 1.613 1.964 0 1.477-1.31 2.18-2.58 2.18l-.02.01ZM463.495 113.633v1.73h-.694v-1.73h-3.461v-.743l3.294-5.23h.861v5.386h1.183v.587h-1.183Zm-.685-5.24-2.864 4.653h2.864v-4.653ZM501.757 115.48c-1.232 0-2.239-.616-2.288-2.004h.763c.029.919.694 1.418 1.535 1.418 1.153 0 1.72-.929 1.72-2.043 0-1.046-.518-1.916-1.613-1.916-.743 0-1.388.43-1.564 1.202h-.704l.166-4.497h4.057v.616h-3.402l-.127 2.864c.421-.547.88-.792 1.594-.792 1.456 0 2.297 1.076 2.297 2.532 0 1.457-.987 2.61-2.464 2.61l.03.01ZM541.7 115.461c-2.131 0-2.561-1.946-2.561-3.764 0-2.063.528-4.184 2.6-4.184 1.467 0 2.2.899 2.2 1.975h-.753c-.078-.9-.499-1.379-1.437-1.379-1.691 0-1.877 2.161-1.906 3.51.371-.841 1.075-1.251 1.955-1.251 1.437 0 2.229 1.104 2.229 2.522 0 1.417-.939 2.571-2.327 2.571Zm.02-4.526c-1.095 0-1.74.879-1.74 1.984 0 1.036.625 1.926 1.671 1.926 1.105 0 1.643-.9 1.643-1.975 0-1.075-.489-1.935-1.574-1.935ZM580.735 115.363h-.802l3.06-7.097h-4.077v-.606h4.702v.684l-2.874 7.019h-.009ZM621.137 115.48c-1.28 0-2.502-.645-2.502-2.15 0-1.076.635-1.731 1.593-1.975-.86-.205-1.495-.753-1.495-1.721 0-1.417 1.202-2.111 2.424-2.111s2.376.665 2.376 2.023c0 .998-.597 1.555-1.486 1.799.919.186 1.583.87 1.583 1.877 0 1.476-1.212 2.258-2.512 2.258h.019Zm-.019-3.842c-.948 0-1.77.567-1.77 1.633 0 1.065.802 1.623 1.76 1.623s1.818-.567 1.818-1.633c0-1.065-.86-1.623-1.808-1.623Zm.049-3.538c-.909 0-1.74.479-1.74 1.515s.84 1.456 1.72 1.456 1.701-.508 1.701-1.505c0-.997-.811-1.466-1.691-1.466h.01ZM152.579 64.666h-.616v4.165h.939v1.925h-.939v4.81h-.694v-4.81h-.938v-1.925h.938v-4.165h-.616l-3.187 12.826-.019.645h8.338v-.645l-3.206-12.826ZM146.019 105.734h-.361v5.132h-.46v1.926h.46v4.487h.361v-4.487h.46v-1.926h-.46v-5.132ZM147.623 105.734h-.362v7.703h-.459v1.926h.459v1.916h.362v-1.916h.469v-1.926h-.469v-7.703ZM149.236 105.734h-.372v3.206h-.459v1.926h.459v6.413h.372v-6.413h.459v-1.926h-.459v-3.206ZM150.839 105.734h-.362v5.132h-.469v1.926h.469v4.487h.362v-4.487h.459v-1.926h-.459v-5.132ZM152.442 105.734h-.362v5.132h-.469v1.926h.469v4.487h.362v-4.487h.46v-1.926h-.46v-5.132ZM154.045 105.734h-.361v1.926h-.46v1.926h.46v7.693h.361v-7.693h.46v-1.926h-.46v-1.926ZM155.648 105.734h-.361v7.703h-.46v1.926h.46v1.916h.361v-1.916h.46v-1.926h-.46v-7.703ZM157.711 113.437h-.459v-7.703h-.362v7.703h-.459v1.926h.459v1.916h.362v-1.916h.459v-1.926ZM38.487 108.813l-1.359 2.698c-.254.509-.83.831-1.496.831-.664 0-1.241-.322-1.485-.811l-1.428-3.383-1.437-3.607c-.361-.723-1.173-1.183-2.072-1.183-.9 0-1.711.47-2.073 1.203l-1.847 4.252h.704l1.73-3.978c.254-.509.84-.831 1.496-.831.655 0 1.241.322 1.486.811l1.427 3.588 1.437 3.402c.361.723 1.173 1.182 2.072 1.182.9 0 1.71-.469 2.073-1.182l1.495-2.982h-.713l-.01-.01ZM121.336 109.527h-9.59v-1.281a.238.238 0 0 0-.235-.234h-4.917a.238.238 0 0 0-.235.234v1.281h-4.682a.238.238 0 0 0-.235.234v3.285c0 .127.108.235.235.235h4.917a.239.239 0 0 0 .235-.235v-1.281h4.448v1.281c0 .127.107.235.234.235h9.825a.238.238 0 0 0 .234-.235v-3.285a.237.237 0 0 0-.234-.234Zm-14.977 2.805a.47.47 0 0 1-.469.47h-3.509a.47.47 0 0 1-.469-.47v-1.876a.47.47 0 0 1 .469-.47h3.509a.47.47 0 0 1 .469.47v1.876Zm9.366.47h-3.51a.47.47 0 0 1-.469-.47v-1.876a.47.47 0 0 1 .469-.47h3.51a.47.47 0 0 1 .469.47v1.876a.47.47 0 0 1-.469.47Zm5.376-.47a.47.47 0 0 1-.469.47h-3.509a.47.47 0 0 1-.47-.47v-1.876a.47.47 0 0 1 .47-.47h3.509a.47.47 0 0 1 .469.47v1.876ZM436.954 110.192l.733-.782c.156.107.293.244.42.381l-.723.772a1.462 1.462 0 0 0-.44-.371h.01Zm-.733-.196c.097 0 .195.01.283.029v-1.055c-.098-.01-.186-.03-.283-.03-.098 0-.186.02-.284.03v1.055c.088-.019.186-.029.284-.029Zm2.502.939h-1.085v.048c.059.167.098.343.098.528h1.056c0-.195-.03-.391-.069-.567v-.009Zm-4.008.576c0-.185.039-.352.098-.518v-.058h-1.085a2.723 2.723 0 0 0-.069.567h1.056v.009Zm.792-1.329-.743-.792a2.688 2.688 0 0 0-.43.381l.723.773c.127-.147.274-.274.44-.362h.01Zm4.565 1.329a3.847 3.847 0 0 1-3.851 3.852 3.847 3.847 0 0 1-3.852-3.852 3.846 3.846 0 0 1 3.852-3.851 3.846 3.846 0 0 1 3.851 3.851Zm-.635 0a3.208 3.208 0 0 0-3.207-3.206 3.208 3.208 0 0 0-3.206 3.206c0 1.428.948 2.63 2.248 3.041v-.802h1.926v.802c1.3-.411 2.248-1.613 2.248-3.041h-.009ZM662.753 113.437h-1.926v1.926h1.926v-1.926ZM665.324 113.437h-1.926v1.926h1.926v-1.926ZM667.885 111.511h-1.926v1.926h1.926v-1.926ZM670.456 107.66h-1.926v1.925h1.926v-1.925ZM673.027 111.511h-1.926v1.926h1.926v-1.926ZM675.588 111.511h-1.926v1.926h1.926v-1.926ZM139.108 181.456v-2.561c0-.841-.098-1.564-1.144-1.564-1.046 0-1.378.811-1.378 1.711v2.414h-.548v-3.255c0-.43-.029-.85-.029-1.281h.538l.039.753c.371-.547.821-.801 1.486-.801 1.232 0 1.593.684 1.593 1.808v2.776h-.557ZM143.82 181.456l-.02-.723c-.381.538-.811.772-1.476.772-1.212 0-1.613-.665-1.613-1.808v-2.777h.548v2.562c0 .84.195 1.564 1.163 1.564 1.026 0 1.369-.851 1.369-1.75v-2.376h.547v3.178c0 .449 0 .909.029 1.358h-.547ZM151.396 181.456v-2.737c0-.782-.235-1.378-1.134-1.378-1.026 0-1.29.713-1.29 1.603v2.522h-.548v-2.678c0-.802-.176-1.447-1.124-1.447-.948 0-1.3.782-1.3 1.603v2.522h-.548v-3.451c0-.361-.029-.723-.029-1.085h.538l.039.792c.303-.557.762-.831 1.398-.831.743 0 1.173.274 1.456.968.313-.675.822-.968 1.555-.968 1.329 0 1.535.87 1.535 1.985v2.6h-.548v-.02ZM171.446 194.937v-6.95c-.538.479-.87.664-1.672 1.104v-.665c.675-.293 1.193-.684 1.711-1.202h.616v7.703h-.665l.01.01ZM208.819 194.937v-.733c1.085-.987 2.893-2.796 3.577-4.067a2.13 2.13 0 0 0 .245-.987c0-.919-.606-1.457-1.467-1.457-.928 0-1.554.616-1.544 1.594h-.723c.019-1.398.977-2.18 2.277-2.18 1.3 0 2.18.664 2.18 1.984 0 1.105-.801 2.043-1.456 2.835-.704.841-1.564 1.652-2.347 2.415h3.901v.606h-4.643v-.01ZM250.854 195.054c-1.32 0-2.327-.713-2.395-2.15h.714c0 .997.85 1.574 1.74 1.574.938 0 1.779-.597 1.779-1.653 0-1.055-.831-1.622-1.77-1.622-.136 0-.273.009-.41.029v-.626c.137.02.283.03.43.03.85 0 1.613-.509 1.613-1.467 0-.958-.792-1.505-1.662-1.505-.948 0-1.505.508-1.623 1.505h-.704c.049-1.349 1.105-2.082 2.327-2.082s2.366.626 2.366 2.043c0 .919-.606 1.535-1.418 1.77.958.185 1.613.938 1.613 1.965 0 1.476-1.31 2.18-2.58 2.18l-.02.009ZM332.1 193.207v1.73h-.694v-1.73h-3.461v-.743l3.294-5.23h.861v5.386h1.183v.587H332.1Zm-.685-5.24-2.864 4.653h2.864v-4.653ZM370.362 195.054c-1.232 0-2.239-.616-2.288-2.004h.763c.029.919.694 1.418 1.535 1.418 1.153 0 1.72-.929 1.72-2.043 0-1.046-.518-1.916-1.613-1.916-.743 0-1.388.43-1.564 1.202h-.704l.166-4.497h4.057v.616h-3.402l-.127 2.864c.421-.547.88-.791 1.594-.791 1.456 0 2.297 1.075 2.297 2.531 0 1.457-.987 2.611-2.464 2.611l.03.009ZM450.102 195.035c-2.131 0-2.561-1.946-2.561-3.764 0-2.063.537-4.184 2.6-4.184 1.466 0 2.19.9 2.19 1.975h-.753c-.078-.9-.498-1.379-1.437-1.379-1.691 0-1.877 2.161-1.906 3.51.371-.841 1.075-1.251 1.965-1.251 1.437 0 2.229 1.104 2.229 2.522 0 1.417-.939 2.571-2.327 2.571Zm.02-4.526c-1.095 0-1.741.879-1.741 1.984 0 1.036.626 1.926 1.672 1.926 1.105 0 1.642-.899 1.642-1.975 0-1.075-.488-1.935-1.573-1.935ZM489.136 194.937h-.801l3.06-7.097h-4.077v-.606h4.702v.684l-2.874 7.019h-.01ZM529.539 195.054c-1.28 0-2.502-.645-2.502-2.15 0-1.076.635-1.731 1.593-1.975-.86-.205-1.496-.753-1.496-1.721 0-1.417 1.203-2.111 2.425-2.111 1.222 0 2.375.665 2.375 2.023 0 .998-.596 1.555-1.476 1.799.919.186 1.584.87 1.584 1.877 0 1.476-1.212 2.258-2.512 2.258h.009Zm-.019-3.842c-.948 0-1.77.567-1.77 1.633s.802 1.623 1.76 1.623 1.818-.567 1.818-1.633c0-1.065-.86-1.623-1.808-1.623Zm.049-3.538c-.91 0-1.74.479-1.74 1.515s.84 1.457 1.73 1.457c.889 0 1.701-.509 1.701-1.506s-.812-1.466-1.691-1.466ZM608.957 195.103c-1.261 0-2.151-.674-2.239-2.033h.753c.039.919.557 1.408 1.466 1.408 1.77 0 1.858-2.171 1.916-3.764-.4.821-1.065 1.261-1.945 1.261-1.359 0-2.258-1.036-2.258-2.424 0-1.389 1.026-2.454 2.405-2.425 1.808.02 2.424 1.535 2.424 3.578 0 1.73-.254 4.409-2.532 4.409l.01-.01Zm.107-7.42c-1.036 0-1.7.802-1.7 1.858s.567 1.828 1.593 1.828 1.75-.753 1.75-1.867c0-1.027-.636-1.819-1.643-1.819ZM648.891 195.035c-2.122 0-2.425-2.405-2.425-4.116 0-1.564.479-3.832 2.483-3.832s2.405 2.229 2.405 3.881c0 1.652-.42 4.067-2.463 4.067Zm.049-7.381c-1.574 0-1.77 2.2-1.77 3.412 0 1.134.196 3.421 1.691 3.421 1.496 0 1.77-2.199 1.77-3.402 0-1.202-.166-3.431-1.691-3.431ZM38.35 230.55H25.515v.645H38.35v-.645ZM78.137 230.55h-6.09v-6.1h-.645v6.1h-6.1v.645h6.1v6.09h.645v-6.09h6.09v-.645ZM194.878 231.156a6.695 6.695 0 0 1-.684 2.982c-.029.068-.029.146.02.205l1.564 2.082c.068.098 0 .235-.118.235h-3.646l-.489-.616c-.518-.763-1.388-.88-1.769-.89a.427.427 0 0 1-.323-.156l-1.73-2.014a.691.691 0 0 0-.186-.147c-.293-.166-1.114-.625-1.114-.625-.323-.147-.645-.469-.46-.86.108-.235.382-.362.695-.294l1.104.264a.51.51 0 0 1 .254.147l.861.929c.244-.108.42-.294.42-.655l-.02-.929a.715.715 0 0 0-.127-.401 247.76 247.76 0 0 0-1.74-2.639.661.661 0 0 1 .176-.919.672.672 0 0 1 .929.176l1.417 2.16c.206.313.704.156.685-.215l-.118-3.187a.65.65 0 0 1 .646-.665c.361 0 .635.284.645.636l.049 3.157c0 .489.762.577.87.088l.752-2.913a.657.657 0 0 1 .802-.469c.352.098.557.45.459.802l-.811 2.952c-.117.43.42.733.723.401l1.262-1.398a.532.532 0 0 1 .791 0c.176.195.167.498 0 .704l-1.789 2.092v-.02ZM104.619 233.463c-.938 0-1.632-.42-1.632-1.417h.538c0 .684.459 1.006 1.124 1.006.528 0 1.163-.273 1.163-.889 0-.479-.401-.675-1.007-.841l-.479-.137c-.704-.195-1.232-.489-1.232-1.192 0-.88.802-1.261 1.584-1.261.88 0 1.535.391 1.564 1.329h-.547c-.039-.616-.391-.89-.997-.89-.46 0-1.056.216-1.056.763 0 .44.381.645.938.802l.509.146c.86.245 1.251.577 1.251 1.203 0 .967-.851 1.388-1.711 1.388l-.01-.01ZM110.544 233.375v-2.561c0-.841-.098-1.564-1.144-1.564-1.046 0-1.379.811-1.379 1.71v2.415h-.547v-6.491h.547v2.708c.362-.538.831-.802 1.477-.802 1.241 0 1.603.665 1.603 1.809v2.776h-.557ZM112.44 227.568v-.684h.655v.684h-.655Zm.049 5.807v-4.536h.547v4.536h-.547ZM116.301 227.246c-.664 0-.772.244-.772.87v.713h1.007v.401h-1.007v4.135h-.547v-4.135h-.919v-.401h.919v-.674c0-.714.107-1.349 1.065-1.349.186 0 .381 0 .567.029v.42c-.078 0-.205-.019-.313-.019v.01ZM118.97 233.414c-.655 0-.958-.313-.958-.968v-3.196h-.899v-.401h.899v-.939l.548-.244v1.173h1.016v.401h-1.016v2.952c0 .508.068.753.635.753.107 0 .274-.029.411-.059v.469c-.216.03-.421.049-.636.049v.01ZM624.96 234.03l4.047-3.158-4.761 1.926c.176.45.42.861.714 1.232Z" class="f" style="fill: rgb(178, 178, 178);"></path><path d="M629.007 236.005c.244 0 .479-.02.714-.049l-.714-5.084-.714 5.084c.235.029.47.049.714.049ZM634.09 231.586c.03-.235.049-.469.049-.714 0-.244-.019-.479-.049-.713l-5.083.713 5.083.714Z" class="f" style="fill: rgb(178, 178, 178);"></path><path d="m627.081 235.633 1.926-4.761-3.158 4.048c.372.293.792.537 1.232.713Z" class="f" style="fill: rgb(178, 178, 178);"></path><path d="m632.164 234.92-3.157-4.048 1.926 4.761c.449-.176.86-.42 1.231-.713ZM633.768 232.798l-4.761-1.926 4.047 3.158c.293-.371.538-.792.714-1.232ZM624.246 228.947l4.761 1.926-4.047-3.158a4.97 4.97 0 0 0-.714 1.232Z" class="f" style="fill: rgb(178, 178, 178);"></path><path d="m630.923 226.112-1.926 4.76 3.158-4.047a5.016 5.016 0 0 0-1.232-.713ZM633.044 227.715l-4.047 3.158 4.761-1.926a4.825 4.825 0 0 0-.714-1.232Z" class="f" style="fill: rgb(178, 178, 178);"></path><path d="M629.007 225.74c-.244 0-.479.02-.714.049l.714 5.083.714-5.083a5.783 5.783 0 0 0-.714-.049ZM623.865 230.872c0 .245.019.479.049.714l5.083-.714-5.083-.713c-.03.234-.049.469-.049.713ZM625.84 226.825l3.157 4.047-1.926-4.76c-.449.176-.86.42-1.231.713ZM541.827 230.227h6.335l-2.053-1.984h1.74l2.532 2.6-2.571 2.532h-1.574l1.985-1.936h-6.394v-1.212ZM302.098 236.65v-2.571h3.852v-2.571h3.851v-2.561h3.852v-2.571h5.132v1.28l-12.835 8.994h-3.852ZM358.572 236.65v-2.571h-3.851v-2.571h-3.852v-2.561h-3.842v-2.571h-5.142v1.28l12.836 8.994h3.851ZM673.926 231.029v-.342h-2.581c0-.108-.009-.225-.029-.323l2.483-.665-.088-.332-2.493.665a2.672 2.672 0 0 0-.127-.303l2.239-1.291-.176-.293-2.229 1.29c-.059-.088-.137-.176-.205-.254l1.828-1.828-.245-.244-1.828 1.828c-.078-.069-.166-.147-.254-.205l1.291-2.229-.294-.176-1.29 2.238a3.056 3.056 0 0 0-.303-.127l.665-2.492-.333-.088-.664 2.483a1.773 1.773 0 0 0-.323-.03v-2.581h-.342v2.581c-.108 0-.225.01-.323.03l-.665-2.483-.332.088.665 2.492a2.868 2.868 0 0 0-.303.127l-1.291-2.238-.293.176 1.29 2.229c-.088.058-.175.136-.254.205l-1.828-1.828-.244.244 1.828 1.828c-.069.078-.147.166-.205.254l-2.229-1.29-.176.293 2.238 1.291a2.868 2.868 0 0 0-.127.303l-2.492-.665-.088.332 2.483.665c-.02.108-.03.215-.03.323h-2.58v.342h2.58c0 .107.01.225.03.322l-2.483.665.088.333 2.492-.665c.039.107.079.205.127.303l-2.238 1.29.176.294 2.229-1.291c.058.088.136.176.205.254l-1.828 1.828.244.245 1.828-1.828c.079.068.166.146.254.205l-1.29 2.229.293.176 1.291-2.239c.097.049.195.088.303.127l-.665 2.493.332.088.665-2.483c.108.02.215.029.323.029v2.581h.342v-2.581c.107 0 .225-.009.323-.029l.664 2.483.333-.088-.665-2.493c.107-.039.205-.078.303-.127l1.29 2.239.294-.176-1.291-2.229c.088-.059.176-.137.254-.205l1.828 1.828.245-.245-1.828-1.828c.068-.078.146-.166.205-.254l2.229 1.291.176-.294-2.239-1.29c.049-.098.088-.196.127-.303l2.493.665.088-.333-2.483-.665c.02-.107.029-.215.029-.322h2.581ZM473.925 235.135c-2.238-2.523-2.228-6.355-.097-8.867-4.008 1.603-6.179 6.061-4.859 10.245.02.049.039.088.049.137h6.892a6.405 6.405 0 0 1-1.985-1.515Z" class="f" style="fill: rgb(178, 178, 178);"></path><path d="M473.28 225.789c-5.181.518-9.238 4.898-9.238 10.216 0 .215.02.43.03.645h4.262c-1.349-4.38.831-9.033 4.936-10.861h.01ZM553.597 232.613a1.8 1.8 0 1 0 0-3.598 1.8 1.8 0 0 0 0 3.598ZM118.657 67.159l-2.668-2.63-3.481 3.676a.336.336 0 0 1-.322.098 3.469 3.469 0 0 0-3.187.948 3.43 3.43 0 0 0-.86 1.427 3.727 3.727 0 0 0-.127.557v.02c-.03.196-.108.958-.108.958-.059 1.232-.518 2.336-1.388 3.216l-.694.694.42.41 4.458-4.457a.852.852 0 0 1 .166-.987.87.87 0 0 1 1.242.01.88.88 0 0 1 .039 1.163.865.865 0 0 1-1.037.225l-4.457 4.457.41.42.694-.693c.87-.87 1.975-1.33 3.217-1.388 0 0 .762-.079.958-.108h.019c.186-.03.381-.068.557-.127A3.485 3.485 0 0 0 114.884 71c-.029-.118.019-.235.098-.323l3.685-3.51-.01-.009ZM27.577 119.586v-4.272a3.64 3.64 0 0 1-1.085.704v-.567c.46-.186.802-.42 1.154-.772h.537v4.917h-.616l.01-.01ZM29.386 117.543v-.401h3.412v.401h-3.412ZM35.32 119.674c-.87 0-1.701-.391-1.701-1.398 0-.694.44-1.105 1.055-1.261-.547-.166-.958-.45-.958-1.105 0-.928.86-1.349 1.613-1.349s1.594.391 1.594 1.3c0 .636-.401.998-.949 1.154.597.166 1.037.499 1.037 1.202 0 .988-.841 1.457-1.682 1.457h-.01Zm-.02-2.415c-.567 0-1.056.333-1.056.968 0 .636.48.968 1.046.968.567 0 1.085-.342 1.085-.978 0-.635-.498-.958-1.075-.958Zm.02-2.248c-.528 0-1.007.303-1.007.909 0 .606.479.86.997.86s.997-.303.997-.879c0-.577-.46-.9-.987-.9v.01ZM67.462 119.586v-4.272a3.641 3.641 0 0 1-1.085.704v-.567c.46-.186.802-.42 1.154-.772h.537v4.917h-.616l.01-.01ZM69.26 117.543v-.401h3.412v.401h-3.411ZM75.195 119.674c-.87 0-1.701-.391-1.701-1.398 0-.694.44-1.105 1.055-1.261-.547-.166-.958-.45-.958-1.105 0-.928.86-1.349 1.613-1.349s1.594.391 1.594 1.3c0 .636-.401.998-.948 1.154.596.166 1.036.499 1.036 1.202 0 .988-.84 1.457-1.682 1.457h-.01Zm-.02-2.415c-.567 0-1.056.333-1.056.968 0 .636.48.968 1.046.968.567 0 1.085-.342 1.085-.978 0-.635-.498-.958-1.075-.958Zm.03-2.248c-.528 0-1.007.303-1.007.909 0 .606.479.86.997.86s.997-.303.997-.879c0-.577-.46-.9-.988-.9v.01ZM665.558 146.352v-2.747a2.233 2.233 0 0 1-.733.44v-.45c.332-.117.547-.274.802-.518h.469v3.275h-.538ZM666.966 145.325v-.342h2.268v.342h-2.268ZM671.922 145.619v.733h-.518v-.733h-1.496v-.489l1.379-2.053h.635v2.16h.499v.382h-.499Zm-.518-2.043-1.085 1.652h1.085v-1.652ZM63.571 107.366h1.965l1.31-1.319h5.7v1.319h3.949v1.32h-3.95v1.32h-5.699l-1.31-1.32h-1.965v-1.32ZM78.47 108.989a.958.958 0 1 0 0-1.916.958.958 0 0 0 0 1.916ZM507.133 108.549h1.555l1.046-1.046h4.291v1.046h3.344v1.046h-3.344v1.046h-4.291l-1.046-1.046h-1.555v-1.046ZM509.587 112.245c-.899 0-1.623.733-1.623 1.622 0 .89.724 1.623 1.623 1.623.9 0 1.623-.723 1.623-1.623 0-.899-.733-1.622-1.623-1.622ZM514.514 115.49a1.619 1.619 0 0 1-1.623-1.623c0-.899.733-1.622 1.623-1.622s1.623.733 1.623 1.622c0 .89-.724 1.623-1.623 1.623Zm0-2.561a.949.949 0 1 0 .001 1.897.949.949 0 0 0-.001-1.897ZM556.403 108.735a2.904 2.904 0 0 0-2.904 2.903c0 .9.421 1.692 1.066 2.229h-3.158a2.89 2.89 0 0 0 1.066-2.229 2.903 2.903 0 1 0-2.903 2.904h6.843a2.904 2.904 0 0 0 0-5.807h-.01Zm-9.072 2.903c0-1.231.997-2.228 2.229-2.228a2.228 2.228 0 1 1 0 4.457 2.228 2.228 0 0 1-2.229-2.229Zm9.072 2.229a2.228 2.228 0 1 1 0-4.457 2.228 2.228 0 1 1 0 4.457ZM665.587 30.92h-.909v1.965h.909v-1.964ZM663.593 30.92h-.909v1.965h.909v-1.964ZM671.56 30.92h-.909v1.965h.909v-1.964ZM673.555 30.92h-.909v1.965h.909v-1.964ZM675.539 30.92h-.909v1.965h.909v-1.964ZM667.582 27h-.91v9.815h.91v-9.814ZM669.566 28.956h-.909v5.884h.909v-5.884ZM588.78 109.742v1.378h1.994v.577h-1.994v2.043h-.772v-4.585h2.883v.587H588.78ZM594.939 113.75l-1.349-1.906-1.262 1.906h-.918l1.71-2.385-1.622-2.2h.938l1.212 1.74 1.134-1.74h.909l-1.564 2.2 1.731 2.395h-.91l-.009-.01ZM588.672 120.603v-3.275h.558v3.275h-.558ZM627.658 120.603v-3.275h.557v3.275h-.557ZM629.271 120.603v-3.275h.557v3.275h-.557Z" class="f" style="fill: rgb(178, 178, 178);"></path><path d="M596.992 108.236v6.433h-10.343v-6.433h10.343Zm.635-.635h-11.604v7.703h11.604v-7.703ZM629.173 109.742v1.378h1.994v.577h-1.994v2.043h-.772v-4.585h2.884v.587H629.173ZM635.488 113.75l-1.349-1.906-1.261 1.906h-.919l1.711-2.385-1.623-2.2h.939l1.212 1.74 1.134-1.74h.909l-1.564 2.2 1.73 2.395h-.909l-.01-.01Z" class="f" style="fill: rgb(178, 178, 178);"></path><path d="M637.473 108.236v6.433H627.13v-6.433h10.343Zm.635-.635h-11.604v7.703h11.604v-7.703ZM667.679 152.677h1.868l-.949-2.415-.919 2.415ZM664.239 152.188h-.968v1.681h.782c.606 0 1.271-.068 1.271-.831 0-.674-.489-.85-1.085-.85ZM665.148 150.946c0-.527-.421-.733-.9-.733h-.977v1.525h.889c.528 0 .988-.195.988-.801v.009ZM674.171 150.946c0-.635-.538-.743-1.066-.743h-.909v1.555h.743c.577 0 1.232-.088 1.232-.812Z" class="f" style="fill: rgb(178, 178, 178);"></path><path d="M676.38 148.131h-15.622c-.215 0-.4.088-.537.225a.704.704 0 0 0-.166.244.734.734 0 0 0-.059.293v6.179c0 .42.342.762.762.762h15.622a.775.775 0 0 0 .44-.156.757.757 0 0 0 .322-.606v-6.179a.763.763 0 0 0-.762-.762Zm-12.151 6.208h-1.545v-4.585h1.613c.714 0 1.457.313 1.457 1.153 0 .567-.333.9-.861 1.036.626.118 1.037.44 1.037 1.125 0 1.036-.88 1.271-1.721 1.271h.02Zm5.973 0-.479-1.213h-2.219l-.47 1.213h-.606l1.867-4.585h.655l1.936 4.585h-.684Zm4.027 0c-.146-.362-.156-.753-.185-1.134-.069-.675-.098-.998-.871-.998h-.977v2.122h-.596v-4.585h1.632c.753 0 1.545.225 1.545 1.134 0 .606-.362.929-.909 1.085.586.127.733.46.782.948.029.303.039.626.097.978.03.166.069.322.157.44h-.675v.01ZM386.453 230.305a1.248 1.248 0 0 0-.382-.048c-.772 0-1.339.557-1.642 1.603l-.694 2.326h-.782l1.026-3.558c.079-.283.137-.538.245-.997h.762l-.205.831c.459-.626.948-.9 1.564-.9.098 0 .186.001.293.02l-.185.723ZM391.204 231.586l-.773 2.591h-.791l.791-2.659c.079-.274.147-.538.147-.763 0-.391-.254-.645-.714-.645-.41 0-.782.176-1.124.518-.342.332-.557.723-.713 1.242l-.685 2.307h-.792l1.017-3.383c.108-.361.225-.782.313-1.173h.792l-.196.743c.518-.557 1.036-.831 1.662-.831.782 0 1.261.421 1.261 1.095 0 .284-.107.684-.186.958h-.009ZM395.984 233.082c-.078.283-.176.655-.264 1.104h-.782l.137-.645c-.499.518-.958.724-1.613.724-.978 0-1.535-.646-1.535-1.623 0-.87.371-1.799.968-2.395a2.4 2.4 0 0 1 1.711-.724c.664 0 1.153.294 1.378.88l.821-2.747h.782l-1.613 5.436.01-.01Zm-1.31-3.001c-.547 0-.997.273-1.359.782a3.063 3.063 0 0 0-.557 1.74c0 .655.342 1.085.997 1.085s1.163-.391 1.505-1.036c.255-.47.431-1.095.431-1.574 0-.645-.382-1.007-1.017-1.007v.01ZM662.557 74.295c-1.408 0-2.131-.987-2.131-2.326 0-1.34.714-2.454 2.18-2.454.997 0 1.672.538 1.75 1.544h-.538c-.058-.703-.508-1.114-1.212-1.114-1.173 0-1.603.958-1.603 1.994 0 .968.469 1.946 1.554 1.946.694 0 1.222-.45 1.271-1.154h.518c-.098 1.017-.792 1.574-1.799 1.574l.01-.01ZM667.093 74.295c-1.427 0-2.141-1.075-2.141-2.414 0-1.34.753-2.337 2.141-2.337s2.131 1.007 2.131 2.337c0 1.33-.762 2.414-2.131 2.414Zm0-4.301c-1.095 0-1.554.9-1.554 1.887s.449 1.984 1.554 1.984 1.545-1.046 1.545-1.984c0-.939-.45-1.887-1.545-1.887ZM676.253 74.198V71.44c0-.782-.235-1.388-1.134-1.388-1.027 0-1.3.713-1.3 1.613v2.541h-.548V71.52c0-.802-.185-1.457-1.134-1.457-.948 0-1.31.782-1.31 1.613v2.542h-.547v-3.47c0-.362-.029-.734-.029-1.095h.537l.039.792c.303-.558.773-.841 1.408-.841.753 0 1.183.274 1.466.978.313-.675.822-.978 1.565-.978 1.339 0 1.544.88 1.544 1.994v2.61h-.547l-.01-.01ZM231.136 225.232c-.997 0-1.798.802-1.798 1.799 0 .997.801 1.798 1.798 1.798s1.799-.801 1.799-1.798-.802-1.799-1.799-1.799ZM153.967 229.083c-.997 0-1.799.802-1.799 1.799 0 .997.802 1.799 1.799 1.799.997 0 1.799-.802 1.799-1.799 0-.997-.802-1.799-1.799-1.799ZM144.113 229.035c-.997 0-1.798.801-1.798 1.798 0 .998.801 1.799 1.798 1.799s1.799-.801 1.799-1.799c0-.997-.802-1.798-1.799-1.798ZM149.079 229.035c-.997 0-1.798.801-1.798 1.798 0 .998.801 1.799 1.798 1.799s1.799-.801 1.799-1.799c0-.997-.802-1.798-1.799-1.798ZM159.002 229.035c-.998 0-1.799.801-1.799 1.798 0 .998.801 1.799 1.799 1.799.997 0 1.798-.801 1.798-1.799 0-.997-.801-1.798-1.798-1.798ZM231.136 232.935c-.997 0-1.798.802-1.798 1.799 0 .997.801 1.799 1.798 1.799s1.799-.802 1.799-1.799c0-.997-.802-1.799-1.799-1.799ZM236.259 230.54h-10.265v.675h10.265v-.675ZM514.426 231.801c-.587-.489-1.349-.215-1.789-.107-.43.107-.85.146-1.261 0-.362-.137-.469-.401-.499-.636.098-.176.255-.195.372-.195.303 0 1.173 0 1.74-.235.782-.332 1.163-.655 1.388-1.417a2.07 2.07 0 0 0-.274-1.643c-.391-.576-1.368-1.359-1.877-1.613-.459-.234-1.231-.391-1.671.127-.489.587-.215 1.349-.108 1.789.108.43.147.851 0 1.252-.137.371-.4.469-.635.498-.176-.098-.196-.254-.196-.371 0-.303 0-1.173-.234-1.74-.333-.782-.655-1.164-1.418-1.389a2.075 2.075 0 0 0-1.642.274c-.577.391-1.359 1.369-1.613 1.877-.235.46-.391 1.232.127 1.672.587.489 1.349.215 1.789.107.43-.107.851-.146 1.251 0 .362.137.47.401.499.636-.098.176-.254.195-.372.195-.303 0-1.173 0-1.74.235-.782.332-1.163.655-1.388 1.417a2.07 2.07 0 0 0 .274 1.643c.391.576 1.368 1.358 1.877 1.613.459.234 1.232.391 1.671-.127.489-.587.215-1.349.108-1.789-.108-.431-.147-.851 0-1.261a.728.728 0 0 1 .635-.499c.176.098.196.254.196.371 0 .303 0 1.174.235 1.741.332.782.655 1.163 1.417 1.388a2.067 2.067 0 0 0 1.642-.274c.577-.391 1.359-1.369 1.613-1.877.235-.459.391-1.232-.127-1.672l.01.01Zm-4.164-.929a.613.613 0 0 1-.616.616.613.613 0 0 1-.616-.616c0-.342.274-.615.616-.615.342 0 .616.273.616.615ZM588.438 230.599l-3.109-3.109a5.112 5.112 0 0 0-1.251 3.109h4.36ZM588.897 225.73a5.113 5.113 0 0 0-3.108 1.301l3.108 3.108v-4.409ZM589.542 225.73v4.409l3.109-3.108a5.08 5.08 0 0 0-3.109-1.301ZM588.438 231.244h-4.35a5.086 5.086 0 0 0 1.3 3.05l3.05-3.05ZM589.992 231.244l3.05 3.05a5.172 5.172 0 0 0 1.3-3.05h-4.35ZM588.897 231.703l-3.05 3.05a5.148 5.148 0 0 0 3.05 1.252v-4.302ZM589.992 230.599h4.36a5.112 5.112 0 0 0-1.251-3.109l-3.109 3.109ZM589.542 231.703v4.302a5.081 5.081 0 0 0 3.05-1.252l-3.05-3.05ZM397.959 113.378h-4.497v1.379h-1.603v.606h7.703v-.606h-1.603v-1.379ZM399.63 112.469c-.098-2.092-1.808-3.763-3.92-3.763-2.111 0-3.822 1.671-3.92 3.763h7.84ZM425.702 226.737s.078.059.068.098c0 .049-.009.147-.009.196v7.058c0 .655-.303 1.114-.87 1.407-.333.176-.685.264-1.066.186-.352-.068-.635-.244-.733-.616a.936.936 0 0 1 .107-.723c.264-.45.675-.714 1.183-.821.333-.079.645-.049.948.107.02.01.049.03.069.039.088.069 0 0 0-.058v-6.403c0-.313.019-.372.029-.411.01-.039.166-.088.215-.078h.059v.019ZM433.914 235.702s-.079-.059-.069-.098c0-.049.01-.147.01-.196v-7.058c0-.655.303-1.114.87-1.407.332-.176.684-.264 1.065-.186.352.068.636.244.734.616a.94.94 0 0 1-.108.723c-.264.45-.674.714-1.183.821a1.331 1.331 0 0 1-.948-.107c-.02-.01-.049-.03-.068-.039-.088-.069 0 0 0 .058v6.403c0 .313-.02.372-.03.411-.01.039-.166.088-.215.078h-.058v-.019ZM427.129 232.837c0-.068-.039-.156-.019-.205a8.86 8.86 0 0 1 .42-.801c.088-.137.244-.167.411-.147.146.019.303.049.449.059.225.019.391-.059.499-.264l.322-.616c.108-.196.264-.294.499-.225.137.039.274.049.42.078.206.049.362-.039.46-.205.078-.137.137-.293.205-.44.156-.381.313-.469.714-.401.107.02.215.049.322.059.274.039.46-.088.538-.342a.888.888 0 0 0 .039-.147c.117.068.108.176.078.274a1.663 1.663 0 0 1-.42.772.465.465 0 0 1-.293.117 4.86 4.86 0 0 1-.646-.058c-.156-.02-.264.049-.332.185-.068.137-.137.284-.205.421a1.92 1.92 0 0 1-.137.244c-.088.147-.225.196-.391.176l-.587-.059c-.156-.019-.273.049-.352.176-.097.167-.195.343-.293.509-.205.342-.352.42-.743.361a.659.659 0 0 1-.195-.029c-.313-.059-.46-.059-.665.401-.01.029-.029.059-.039.088h-.049l-.01.019ZM276.408 233.776h-13.149c-.332 0-.42-.46-.107-.577l13.148-5.259a.302.302 0 0 1 .411.283v5.26a.305.305 0 0 1-.303.303v-.01ZM355.141 115.539l-.205-.655a.801.801 0 0 0-.792-.557c-.235.01-.518.029-.792.049a.693.693 0 0 1-.733-.812v-.029a.374.374 0 0 0-.147-.372l-.068-.048c-.059-.049-.069-.137-.01-.186l.078-.069-.127-.136s-.029-.088 0-.128l.117-.136c.059-.069.03-.176-.048-.215l-.147-.059c-.156-.069-.196-.274-.068-.381h.009c.079-.079.147-.147.206-.215l.283-.343s.049-.097.049-.146c0 0 0-.059-.02-.078l-.029-.059c-.41-.841-.234-1.809.616-2.542a4.022 4.022 0 0 1 2.962-.801l.313.039a3.29 3.29 0 0 1 2.854 2.923v.068a3.305 3.305 0 0 1-1.29 3.001 3.036 3.036 0 0 0-.264.206.879.879 0 0 0-.274 1.036l.274.655h-2.757l.01-.01Zm.948-1.73.694 1.73h.411s-.929-2.317-1.066-2.581c-.361-.704.235-1.671 1.027-1.574.313.039.606.274.948.421a.673.673 0 0 0 .44.019.728.728 0 0 0 .43-1.085.062.062 0 0 1 0-.059.494.494 0 0 0 .108-.303.484.484 0 0 0-.382-.479c-.029 0-.048-.049-.029-.078a.487.487 0 0 0 .078-.391.488.488 0 0 0-.361-.362.596.596 0 0 0-.294.02.053.053 0 0 1-.068-.049c0-.049.01-.107 0-.156a.488.488 0 0 0-.792-.303c-.029.019-.068 0-.078-.03a.453.453 0 0 0-.274-.4.49.49 0 0 0-.215-.049.483.483 0 0 0-.411.215c-.019.029-.068.029-.088 0a.488.488 0 0 0-.909-.03c-.019.03-.058.039-.078.01a.47.47 0 0 0-.381-.186.439.439 0 0 0-.254.098c-.166.137-.225.245-.235.352 0 .039-.049.049-.078.029a.495.495 0 0 0-.391-.088.495.495 0 0 0-.381.372c-.03.127 0 .235.048.332.02.03 0 .069-.029.069a.703.703 0 0 0 .117 1.398l.304.029a.86.86 0 0 1 .674.42c.254.43.401.909.44 1.398.049.352.381.675.684.861a.96.96 0 0 1 .372.439l.019-.009ZM69.173 188.094c0-.43.303-.596.665-.381l5.865 2.991c.362.215.362.557 0 .772l-5.865 2.992c-.362.215-.665.039-.665-.381V188.094Zm44.157-.225h-.9l-4.164 4.165v.899l5.064-5.064Zm-5.064 2.356v.9l3.255-3.256h-.899l-2.356 2.356Zm6.07-2.356h-.107l-5.973 5.973v.03c0 .224.186.41.411.41h.039l6.031-6.032a.409.409 0 0 0-.41-.391l.009.01Zm.421 2.2v-.9l-5.123 5.123h.9l4.223-4.223Zm-5.044-2.2h-1.037a.413.413 0 0 0-.41.411v1.036l1.447-1.447Zm5.044 4.008v-.899l-3.314 3.314h.899l2.415-2.415Zm-1.515 2.415h1.094a.414.414 0 0 0 .411-.411v-1.095l-1.505 1.506ZM473.28 113.975c-1.408 0-2.131-.988-2.131-2.327s.714-2.463 2.18-2.463c.997 0 1.672.537 1.75 1.544h-.538c-.068-.704-.508-1.114-1.212-1.114-1.173 0-1.603.958-1.603 1.994 0 .968.469 1.945 1.554 1.945.694 0 1.222-.449 1.271-1.153h.518c-.098 1.017-.792 1.574-1.799 1.574h.01ZM477.963 113.877h-.548l-1.877-4.565h.616l1.603 3.969 1.516-3.969h.567l-1.868 4.565h-.009ZM31.937 187.488a3.6 3.6 0 0 0-3.597 3.597 3.592 3.592 0 0 0 3.597 3.588 3.592 3.592 0 0 0 3.598-3.588 3.6 3.6 0 0 0-3.598-3.597ZM716.128 208.955l-5.24 3.676 5.24 3.598v1.182l-5.993-4.174-5.533 4.028v-1.31l4.878-3.383-4.878-3.343v-1.183l5.543 3.901 5.973-4.272v1.261l.01.019ZM711.181 202.083h4.937v1.036h-4.976l-6.579 4.458v-1.241l5.66-3.793-5.66-3.745v-1.182l6.608 4.457.01.01Z" class="f" style="fill: rgb(178, 178, 178);"></path><path d="M715.375 223.814h-10.264a.646.646 0 0 0-.646.646v10.264c0 .356.289.645.646.645h10.264a.645.645 0 0 0 .645-.645V224.46a.646.646 0 0 0-.645-.646Z" class="s" style="fill: none; stroke: rgb(178, 178, 178); stroke-width: 0.5; stroke-linecap: round; stroke-linejoin: round; stroke-miterlimit: 30;"></path><path d="M710.927 231.616c0 1.437-1.095 2.033-2.405 2.033-1.31 0-2.395-.636-2.395-2.033 0-1.398 1.017-2.044 2.356-2.044 1.34 0 2.444.587 2.444 2.044Zm-4.448 0c0 1.153 1.036 1.573 2.043 1.573 1.007 0 2.053-.41 2.053-1.573 0-1.164-1.036-1.584-2.053-1.584-1.016 0-2.043.381-2.043 1.584ZM708.679 226.571c.088.274.107.606.107.929v.753h2.063v.42h-4.644v-1.3c0-.509.079-.88.235-1.134.235-.372.587-.518 1.056-.518.567 0 .997.322 1.173.85h.01Zm-2.122.782v.909h1.877v-.694c0-.254-.009-.606-.097-.85-.127-.362-.519-.548-.88-.548-.773 0-.909.538-.909 1.183h.009Z" class="f" style="fill: rgb(178, 178, 178);"></path></g><defs style="fill: none;"><clipPath id="3b8aa4f31439f455__clip0_4597_21505" style="fill: none;"><path d="M0 0h740v264.735H0z" class="f" style="fill: rgb(178, 178, 178);"></path></clipPath></defs>
  </g>
</svg>